<svg width="17" height="13" viewBox="0 0 17 13" fill="none" xmlns="http://www.w3.org/2000/svg">
<path d="M15.785 0.86702C15.4791 0.875475 15.1883 1.00585 14.974 1.23057L6.26678 10.1773L1.90219 6.70772L1.90235 6.70789C1.5691 6.44258 1.12347 6.38018 0.733437 6.54403C0.343249 6.70789 0.0677539 7.07332 0.0108373 7.5023C-0.0461046 7.93146 0.124059 8.35927 0.457322 8.62441L5.64764 12.7454C5.87425 12.9262 6.15732 13.0159 6.44351 12.9977C6.72985 12.9796 6.99991 12.855 7.20331 12.647L16.6403 2.95046C16.8698 2.72252 16.9997 2.40849 17 2.08045C17.0005 1.75241 16.8715 1.43823 16.6426 1.20963C16.4135 0.980842 16.1041 0.857406 15.785 0.867211L15.785 0.86702Z" fill="white"/>
</svg>
