<svg width="26" height="26" viewBox="0 0 26 26" fill="none" xmlns="http://www.w3.org/2000/svg">
<path d="M25.5775 0.422535C25.0141 -0.14051 24.101 -0.14051 23.5379 0.422535L13 10.9604L2.46212 0.422535C1.89874 -0.140845 0.985614 -0.140845 0.422535 0.422535C-0.140845 0.985914 -0.140845 1.89904 0.422535 2.46212L10.9604 13L0.422535 23.5379C-0.140845 24.1013 -0.140845 25.0144 0.422535 25.5775C0.985914 26.1408 1.89904 26.1408 2.46212 25.5775L13 15.0396L23.5379 25.5775C24.1013 26.1408 25.0144 26.1408 25.5775 25.5775C26.1408 25.0141 26.1408 24.101 25.5775 23.5379L15.0396 13L25.5775 2.46212C26.1408 1.89874 26.1408 0.985614 25.5775 0.422535Z" fill="#666666"/>
</svg>
