<svg width="400" height="280" viewBox="0 0 400 280" fill="none" xmlns="http://www.w3.org/2000/svg">
<g clip-path="url(#clip0_26_26)">
<g opacity="0.2">
<path d="M444.287 222.77C445.118 224.209 445.927 225.662 446.714 227.129C445.285 226.194 444.33 224.595 444.287 222.77Z" fill="#00926F"/>
<path d="M414.954 185.785C417.451 188.128 419.872 190.549 422.215 193.046C421.309 194.72 419.537 195.857 417.5 195.857C414.541 195.857 412.143 193.459 412.143 190.5C412.143 188.463 413.28 186.691 414.954 185.785Z" fill="#00926F"/>
<path d="M380.871 161.286C382.338 162.073 383.791 162.882 385.23 163.713C383.405 163.67 381.806 162.715 380.871 161.286Z" fill="#00926F"/>
<path d="M224.77 163.713C226.209 162.882 227.662 162.073 229.129 161.286C228.194 162.715 226.595 163.67 224.77 163.713Z" fill="#00926F"/>
<path d="M187.785 193.046C190.128 190.549 192.549 188.128 195.046 185.785C196.72 186.691 197.857 188.463 197.857 190.5C197.857 193.459 195.459 195.857 192.5 195.857C190.463 195.857 188.691 194.72 187.785 193.046Z" fill="#00926F"/>
<path d="M163.286 227.129C164.073 225.662 164.882 224.209 165.713 222.77C165.67 224.595 164.715 226.194 163.286 227.129Z" fill="#00926F"/>
<path d="M446.714 378.871C445.927 380.338 445.118 381.791 444.287 383.23C444.33 381.405 445.285 379.806 446.714 378.871Z" fill="#00926F"/>
<path d="M422.215 412.954C421.309 411.28 419.537 410.143 417.5 410.143C414.541 410.143 412.143 412.541 412.143 415.5C412.143 417.537 413.28 419.309 414.954 420.215C417.451 417.872 419.872 415.451 422.215 412.954Z" fill="#00926F"/>
<path d="M385.23 442.287C383.405 442.33 381.806 443.285 380.871 444.714C382.338 443.927 383.791 443.118 385.23 442.287Z" fill="#00926F"/>
<path d="M229.129 444.714C228.194 443.285 226.595 442.33 224.77 442.287C226.209 443.118 227.662 443.927 229.129 444.714Z" fill="#00926F"/>
<path d="M195.046 420.215C196.72 419.309 197.857 417.537 197.857 415.5C197.857 412.541 195.459 410.143 192.5 410.143C190.463 410.143 188.691 411.28 187.785 412.954C190.128 415.451 192.549 417.872 195.046 420.215Z" fill="#00926F"/>
<path d="M165.713 383.23C165.67 381.405 164.715 379.806 163.286 378.871C164.073 380.338 164.882 381.791 165.713 383.23Z" fill="#00926F"/>
<path d="M262.143 158.357C262.143 161.316 259.744 163.714 256.786 163.714C253.827 163.714 251.429 161.316 251.429 158.357C251.429 155.398 253.827 153 256.786 153C259.744 153 262.143 155.398 262.143 158.357Z" fill="#00926F"/>
<path d="M294.286 158.357C294.286 161.316 291.887 163.714 288.929 163.714C285.97 163.714 283.571 161.316 283.571 158.357C283.571 155.398 285.97 153 288.929 153C291.887 153 294.286 155.398 294.286 158.357Z" fill="#00926F"/>
<path d="M326.429 158.357C326.429 161.316 324.03 163.714 321.071 163.714C318.113 163.714 315.714 161.316 315.714 158.357C315.714 155.398 318.113 153 321.071 153C324.03 153 326.429 155.398 326.429 158.357Z" fill="#00926F"/>
<path d="M358.571 158.357C358.571 161.316 356.173 163.714 353.214 163.714C350.256 163.714 347.857 161.316 347.857 158.357C347.857 155.398 350.256 153 353.214 153C356.173 153 358.571 155.398 358.571 158.357Z" fill="#00926F"/>
<path d="M230 190.5C230 193.459 227.602 195.857 224.643 195.857C221.684 195.857 219.286 193.459 219.286 190.5C219.286 187.541 221.684 185.143 224.643 185.143C227.602 185.143 230 187.541 230 190.5Z" fill="#00926F"/>
<path d="M262.143 190.5C262.143 193.459 259.744 195.857 256.786 195.857C253.827 195.857 251.429 193.459 251.429 190.5C251.429 187.541 253.827 185.143 256.786 185.143C259.744 185.143 262.143 187.541 262.143 190.5Z" fill="#00926F"/>
<path d="M294.286 190.5C294.286 193.459 291.887 195.857 288.929 195.857C285.97 195.857 283.571 193.459 283.571 190.5C283.571 187.541 285.97 185.143 288.929 185.143C291.887 185.143 294.286 187.541 294.286 190.5Z" fill="#00926F"/>
<path d="M326.429 190.5C326.429 193.459 324.03 195.857 321.071 195.857C318.113 195.857 315.714 193.459 315.714 190.5C315.714 187.541 318.113 185.143 321.071 185.143C324.03 185.143 326.429 187.541 326.429 190.5Z" fill="#00926F"/>
<path d="M358.571 190.5C358.571 193.459 356.173 195.857 353.214 195.857C350.256 195.857 347.857 193.459 347.857 190.5C347.857 187.541 350.256 185.143 353.214 185.143C356.173 185.143 358.571 187.541 358.571 190.5Z" fill="#00926F"/>
<path d="M390.714 190.5C390.714 193.459 388.316 195.857 385.357 195.857C382.398 195.857 380 193.459 380 190.5C380 187.541 382.398 185.143 385.357 185.143C388.316 185.143 390.714 187.541 390.714 190.5Z" fill="#00926F"/>
<path d="M197.857 222.643C197.857 225.602 195.459 228 192.5 228C189.541 228 187.143 225.602 187.143 222.643C187.143 219.684 189.541 217.286 192.5 217.286C195.459 217.286 197.857 219.684 197.857 222.643Z" fill="#00926F"/>
<path d="M230 222.643C230 225.602 227.602 228 224.643 228C221.684 228 219.286 225.602 219.286 222.643C219.286 219.684 221.684 217.286 224.643 217.286C227.602 217.286 230 219.684 230 222.643Z" fill="#00926F"/>
<path d="M262.143 222.643C262.143 225.602 259.744 228 256.786 228C253.827 228 251.429 225.602 251.429 222.643C251.429 219.684 253.827 217.286 256.786 217.286C259.744 217.286 262.143 219.684 262.143 222.643Z" fill="#00926F"/>
<path d="M294.286 222.643C294.286 225.602 291.887 228 288.929 228C285.97 228 283.571 225.602 283.571 222.643C283.571 219.684 285.97 217.286 288.929 217.286C291.887 217.286 294.286 219.684 294.286 222.643Z" fill="#00926F"/>
<path d="M326.429 222.643C326.429 225.602 324.03 228 321.071 228C318.113 228 315.714 225.602 315.714 222.643C315.714 219.684 318.113 217.286 321.071 217.286C324.03 217.286 326.429 219.684 326.429 222.643Z" fill="#00926F"/>
<path d="M358.571 222.643C358.571 225.602 356.173 228 353.214 228C350.256 228 347.857 225.602 347.857 222.643C347.857 219.684 350.256 217.286 353.214 217.286C356.173 217.286 358.571 219.684 358.571 222.643Z" fill="#00926F"/>
<path d="M390.714 222.643C390.714 225.602 388.316 228 385.357 228C382.398 228 380 225.602 380 222.643C380 219.684 382.398 217.286 385.357 217.286C388.316 217.286 390.714 219.684 390.714 222.643Z" fill="#00926F"/>
<path d="M422.857 222.643C422.857 225.602 420.459 228 417.5 228C414.541 228 412.143 225.602 412.143 222.643C412.143 219.684 414.541 217.286 417.5 217.286C420.459 217.286 422.857 219.684 422.857 222.643Z" fill="#00926F"/>
<path d="M165.714 254.786C165.714 257.744 163.316 260.143 160.357 260.143C157.398 260.143 155 257.744 155 254.786C155 251.827 157.398 249.429 160.357 249.429C163.316 249.429 165.714 251.827 165.714 254.786Z" fill="#00926F"/>
<path d="M197.857 254.786C197.857 257.744 195.459 260.143 192.5 260.143C189.541 260.143 187.143 257.744 187.143 254.786C187.143 251.827 189.541 249.429 192.5 249.429C195.459 249.429 197.857 251.827 197.857 254.786Z" fill="#00926F"/>
<path d="M230 254.786C230 257.744 227.602 260.143 224.643 260.143C221.684 260.143 219.286 257.744 219.286 254.786C219.286 251.827 221.684 249.429 224.643 249.429C227.602 249.429 230 251.827 230 254.786Z" fill="#00926F"/>
<path d="M262.143 254.786C262.143 257.744 259.744 260.143 256.786 260.143C253.827 260.143 251.429 257.744 251.429 254.786C251.429 251.827 253.827 249.429 256.786 249.429C259.744 249.429 262.143 251.827 262.143 254.786Z" fill="#00926F"/>
<path d="M294.286 254.786C294.286 257.744 291.887 260.143 288.929 260.143C285.97 260.143 283.571 257.744 283.571 254.786C283.571 251.827 285.97 249.429 288.929 249.429C291.887 249.429 294.286 251.827 294.286 254.786Z" fill="#00926F"/>
<path d="M326.429 254.786C326.429 257.744 324.03 260.143 321.071 260.143C318.113 260.143 315.714 257.744 315.714 254.786C315.714 251.827 318.113 249.429 321.071 249.429C324.03 249.429 326.429 251.827 326.429 254.786Z" fill="#00926F"/>
<path d="M358.571 254.786C358.571 257.744 356.173 260.143 353.214 260.143C350.256 260.143 347.857 257.744 347.857 254.786C347.857 251.827 350.256 249.429 353.214 249.429C356.173 249.429 358.571 251.827 358.571 254.786Z" fill="#00926F"/>
<path d="M390.714 254.786C390.714 257.744 388.316 260.143 385.357 260.143C382.398 260.143 380 257.744 380 254.786C380 251.827 382.398 249.429 385.357 249.429C388.316 249.429 390.714 251.827 390.714 254.786Z" fill="#00926F"/>
<path d="M422.857 254.786C422.857 257.744 420.459 260.143 417.5 260.143C414.541 260.143 412.143 257.744 412.143 254.786C412.143 251.827 414.541 249.429 417.5 249.429C420.459 249.429 422.857 251.827 422.857 254.786Z" fill="#00926F"/>
<path d="M455 254.786C455 257.744 452.602 260.143 449.643 260.143C446.684 260.143 444.286 257.744 444.286 254.786C444.286 251.827 446.684 249.429 449.643 249.429C452.602 249.429 455 251.827 455 254.786Z" fill="#00926F"/>
<path d="M165.714 286.929C165.714 289.887 163.316 292.286 160.357 292.286C157.398 292.286 155 289.887 155 286.929C155 283.97 157.398 281.571 160.357 281.571C163.316 281.571 165.714 283.97 165.714 286.929Z" fill="#00926F"/>
<path d="M197.857 286.929C197.857 289.887 195.459 292.286 192.5 292.286C189.541 292.286 187.143 289.887 187.143 286.929C187.143 283.97 189.541 281.571 192.5 281.571C195.459 281.571 197.857 283.97 197.857 286.929Z" fill="#00926F"/>
<path d="M230 286.929C230 289.887 227.602 292.286 224.643 292.286C221.684 292.286 219.286 289.887 219.286 286.929C219.286 283.97 221.684 281.571 224.643 281.571C227.602 281.571 230 283.97 230 286.929Z" fill="#00926F"/>
<path d="M262.143 286.929C262.143 289.887 259.744 292.286 256.786 292.286C253.827 292.286 251.429 289.887 251.429 286.929C251.429 283.97 253.827 281.571 256.786 281.571C259.744 281.571 262.143 283.97 262.143 286.929Z" fill="#00926F"/>
<path d="M294.286 286.929C294.286 289.887 291.887 292.286 288.929 292.286C285.97 292.286 283.571 289.887 283.571 286.929C283.571 283.97 285.97 281.571 288.929 281.571C291.887 281.571 294.286 283.97 294.286 286.929Z" fill="#00926F"/>
<path d="M326.429 286.929C326.429 289.887 324.03 292.286 321.071 292.286C318.113 292.286 315.714 289.887 315.714 286.929C315.714 283.97 318.113 281.571 321.071 281.571C324.03 281.571 326.429 283.97 326.429 286.929Z" fill="#00926F"/>
<path d="M358.571 286.929C358.571 289.887 356.173 292.286 353.214 292.286C350.256 292.286 347.857 289.887 347.857 286.929C347.857 283.97 350.256 281.571 353.214 281.571C356.173 281.571 358.571 283.97 358.571 286.929Z" fill="#00926F"/>
<path d="M390.714 286.929C390.714 289.887 388.316 292.286 385.357 292.286C382.398 292.286 380 289.887 380 286.929C380 283.97 382.398 281.571 385.357 281.571C388.316 281.571 390.714 283.97 390.714 286.929Z" fill="#00926F"/>
<path d="M422.857 286.929C422.857 289.887 420.459 292.286 417.5 292.286C414.541 292.286 412.143 289.887 412.143 286.929C412.143 283.97 414.541 281.571 417.5 281.571C420.459 281.571 422.857 283.97 422.857 286.929Z" fill="#00926F"/>
<path d="M455 286.929C455 289.887 452.602 292.286 449.643 292.286C446.684 292.286 444.286 289.887 444.286 286.929C444.286 283.97 446.684 281.571 449.643 281.571C452.602 281.571 455 283.97 455 286.929Z" fill="#00926F"/>
<path d="M165.714 319.071C165.714 322.03 163.316 324.429 160.357 324.429C157.398 324.429 155 322.03 155 319.071C155 316.113 157.398 313.714 160.357 313.714C163.316 313.714 165.714 316.113 165.714 319.071Z" fill="#00926F"/>
<path d="M197.857 319.071C197.857 322.03 195.459 324.429 192.5 324.429C189.541 324.429 187.143 322.03 187.143 319.071C187.143 316.113 189.541 313.714 192.5 313.714C195.459 313.714 197.857 316.113 197.857 319.071Z" fill="#00926F"/>
<path d="M230 319.071C230 322.03 227.602 324.429 224.643 324.429C221.684 324.429 219.286 322.03 219.286 319.071C219.286 316.113 221.684 313.714 224.643 313.714C227.602 313.714 230 316.113 230 319.071Z" fill="#00926F"/>
<path d="M262.143 319.071C262.143 322.03 259.744 324.429 256.786 324.429C253.827 324.429 251.429 322.03 251.429 319.071C251.429 316.113 253.827 313.714 256.786 313.714C259.744 313.714 262.143 316.113 262.143 319.071Z" fill="#00926F"/>
<path d="M294.286 319.071C294.286 322.03 291.887 324.429 288.929 324.429C285.97 324.429 283.571 322.03 283.571 319.071C283.571 316.113 285.97 313.714 288.929 313.714C291.887 313.714 294.286 316.113 294.286 319.071Z" fill="#00926F"/>
<path d="M326.429 319.071C326.429 322.03 324.03 324.429 321.071 324.429C318.113 324.429 315.714 322.03 315.714 319.071C315.714 316.113 318.113 313.714 321.071 313.714C324.03 313.714 326.429 316.113 326.429 319.071Z" fill="#00926F"/>
<path d="M358.571 319.071C358.571 322.03 356.173 324.429 353.214 324.429C350.256 324.429 347.857 322.03 347.857 319.071C347.857 316.113 350.256 313.714 353.214 313.714C356.173 313.714 358.571 316.113 358.571 319.071Z" fill="#00926F"/>
<path d="M390.714 319.071C390.714 322.03 388.316 324.429 385.357 324.429C382.398 324.429 380 322.03 380 319.071C380 316.113 382.398 313.714 385.357 313.714C388.316 313.714 390.714 316.113 390.714 319.071Z" fill="#00926F"/>
<path d="M422.857 319.071C422.857 322.03 420.459 324.429 417.5 324.429C414.541 324.429 412.143 322.03 412.143 319.071C412.143 316.113 414.541 313.714 417.5 313.714C420.459 313.714 422.857 316.113 422.857 319.071Z" fill="#00926F"/>
<path d="M455 319.071C455 322.03 452.602 324.429 449.643 324.429C446.684 324.429 444.286 322.03 444.286 319.071C444.286 316.113 446.684 313.714 449.643 313.714C452.602 313.714 455 316.113 455 319.071Z" fill="#00926F"/>
<path d="M165.714 351.214C165.714 354.173 163.316 356.571 160.357 356.571C157.398 356.571 155 354.173 155 351.214C155 348.256 157.398 345.857 160.357 345.857C163.316 345.857 165.714 348.256 165.714 351.214Z" fill="#00926F"/>
<path d="M197.857 351.214C197.857 354.173 195.459 356.571 192.5 356.571C189.541 356.571 187.143 354.173 187.143 351.214C187.143 348.256 189.541 345.857 192.5 345.857C195.459 345.857 197.857 348.256 197.857 351.214Z" fill="#00926F"/>
<path d="M230 351.214C230 354.173 227.602 356.571 224.643 356.571C221.684 356.571 219.286 354.173 219.286 351.214C219.286 348.256 221.684 345.857 224.643 345.857C227.602 345.857 230 348.256 230 351.214Z" fill="#00926F"/>
<path d="M262.143 351.214C262.143 354.173 259.744 356.571 256.786 356.571C253.827 356.571 251.429 354.173 251.429 351.214C251.429 348.256 253.827 345.857 256.786 345.857C259.744 345.857 262.143 348.256 262.143 351.214Z" fill="#00926F"/>
<path d="M294.286 351.214C294.286 354.173 291.887 356.571 288.929 356.571C285.97 356.571 283.571 354.173 283.571 351.214C283.571 348.256 285.97 345.857 288.929 345.857C291.887 345.857 294.286 348.256 294.286 351.214Z" fill="#00926F"/>
<path d="M326.429 351.214C326.429 354.173 324.03 356.571 321.071 356.571C318.113 356.571 315.714 354.173 315.714 351.214C315.714 348.256 318.113 345.857 321.071 345.857C324.03 345.857 326.429 348.256 326.429 351.214Z" fill="#00926F"/>
<path d="M358.571 351.214C358.571 354.173 356.173 356.571 353.214 356.571C350.256 356.571 347.857 354.173 347.857 351.214C347.857 348.256 350.256 345.857 353.214 345.857C356.173 345.857 358.571 348.256 358.571 351.214Z" fill="#00926F"/>
<path d="M390.714 351.214C390.714 354.173 388.316 356.571 385.357 356.571C382.398 356.571 380 354.173 380 351.214C380 348.256 382.398 345.857 385.357 345.857C388.316 345.857 390.714 348.256 390.714 351.214Z" fill="#00926F"/>
<path d="M422.857 351.214C422.857 354.173 420.459 356.571 417.5 356.571C414.541 356.571 412.143 354.173 412.143 351.214C412.143 348.256 414.541 345.857 417.5 345.857C420.459 345.857 422.857 348.256 422.857 351.214Z" fill="#00926F"/>
<path d="M455 351.214C455 354.173 452.602 356.571 449.643 356.571C446.684 356.571 444.286 354.173 444.286 351.214C444.286 348.256 446.684 345.857 449.643 345.857C452.602 345.857 455 348.256 455 351.214Z" fill="#00926F"/>
<path d="M197.857 383.357C197.857 386.316 195.459 388.714 192.5 388.714C189.541 388.714 187.143 386.316 187.143 383.357C187.143 380.398 189.541 378 192.5 378C195.459 378 197.857 380.398 197.857 383.357Z" fill="#00926F"/>
<path d="M230 383.357C230 386.316 227.602 388.714 224.643 388.714C221.684 388.714 219.286 386.316 219.286 383.357C219.286 380.398 221.684 378 224.643 378C227.602 378 230 380.398 230 383.357Z" fill="#00926F"/>
<path d="M262.143 383.357C262.143 386.316 259.744 388.714 256.786 388.714C253.827 388.714 251.429 386.316 251.429 383.357C251.429 380.398 253.827 378 256.786 378C259.744 378 262.143 380.398 262.143 383.357Z" fill="#00926F"/>
<path d="M294.286 383.357C294.286 386.316 291.887 388.714 288.929 388.714C285.97 388.714 283.571 386.316 283.571 383.357C283.571 380.398 285.97 378 288.929 378C291.887 378 294.286 380.398 294.286 383.357Z" fill="#00926F"/>
<path d="M326.429 383.357C326.429 386.316 324.03 388.714 321.071 388.714C318.113 388.714 315.714 386.316 315.714 383.357C315.714 380.398 318.113 378 321.071 378C324.03 378 326.429 380.398 326.429 383.357Z" fill="#00926F"/>
<path d="M358.571 383.357C358.571 386.316 356.173 388.714 353.214 388.714C350.256 388.714 347.857 386.316 347.857 383.357C347.857 380.398 350.256 378 353.214 378C356.173 378 358.571 380.398 358.571 383.357Z" fill="#00926F"/>
<path d="M390.714 383.357C390.714 386.316 388.316 388.714 385.357 388.714C382.398 388.714 380 386.316 380 383.357C380 380.398 382.398 378 385.357 378C388.316 378 390.714 380.398 390.714 383.357Z" fill="#00926F"/>
<path d="M422.857 383.357C422.857 386.316 420.459 388.714 417.5 388.714C414.541 388.714 412.143 386.316 412.143 383.357C412.143 380.398 414.541 378 417.5 378C420.459 378 422.857 380.398 422.857 383.357Z" fill="#00926F"/>
<path d="M230 415.5C230 418.459 227.602 420.857 224.643 420.857C221.684 420.857 219.286 418.459 219.286 415.5C219.286 412.541 221.684 410.143 224.643 410.143C227.602 410.143 230 412.541 230 415.5Z" fill="#00926F"/>
<path d="M262.143 415.5C262.143 418.459 259.744 420.857 256.786 420.857C253.827 420.857 251.429 418.459 251.429 415.5C251.429 412.541 253.827 410.143 256.786 410.143C259.744 410.143 262.143 412.541 262.143 415.5Z" fill="#00926F"/>
<path d="M294.286 415.5C294.286 418.459 291.887 420.857 288.929 420.857C285.97 420.857 283.571 418.459 283.571 415.5C283.571 412.541 285.97 410.143 288.929 410.143C291.887 410.143 294.286 412.541 294.286 415.5Z" fill="#00926F"/>
<path d="M326.429 415.5C326.429 418.459 324.03 420.857 321.071 420.857C318.113 420.857 315.714 418.459 315.714 415.5C315.714 412.541 318.113 410.143 321.071 410.143C324.03 410.143 326.429 412.541 326.429 415.5Z" fill="#00926F"/>
<path d="M358.571 415.5C358.571 418.459 356.173 420.857 353.214 420.857C350.256 420.857 347.857 418.459 347.857 415.5C347.857 412.541 350.256 410.143 353.214 410.143C356.173 410.143 358.571 412.541 358.571 415.5Z" fill="#00926F"/>
<path d="M390.714 415.5C390.714 418.459 388.316 420.857 385.357 420.857C382.398 420.857 380 418.459 380 415.5C380 412.541 382.398 410.143 385.357 410.143C388.316 410.143 390.714 412.541 390.714 415.5Z" fill="#00926F"/>
<path d="M262.143 447.643C262.143 450.602 259.744 453 256.786 453C253.827 453 251.429 450.602 251.429 447.643C251.429 444.684 253.827 442.286 256.786 442.286C259.744 442.286 262.143 444.684 262.143 447.643Z" fill="#00926F"/>
<path d="M294.286 447.643C294.286 450.602 291.887 453 288.929 453C285.97 453 283.571 450.602 283.571 447.643C283.571 444.684 285.97 442.286 288.929 442.286C291.887 442.286 294.286 444.684 294.286 447.643Z" fill="#00926F"/>
<path d="M326.429 447.643C326.429 450.602 324.03 453 321.071 453C318.113 453 315.714 450.602 315.714 447.643C315.714 444.684 318.113 442.286 321.071 442.286C324.03 442.286 326.429 444.684 326.429 447.643Z" fill="#00926F"/>
<path d="M358.571 447.643C358.571 450.602 356.173 453 353.214 453C350.256 453 347.857 450.602 347.857 447.643C347.857 444.684 350.256 442.286 353.214 442.286C356.173 442.286 358.571 444.684 358.571 447.643Z" fill="#00926F"/>
</g>
</g>
<defs>
<clipPath id="clip0_26_26">
<rect width="400" height="280" fill="white"/>
</clipPath>
</defs>
</svg>
