<svg width="661" height="481" viewBox="0 0 661 481" fill="none" xmlns="http://www.w3.org/2000/svg">
<ellipse cx="531.932" cy="259.587" rx="113.947" ry="114.487" fill="#CBE6DF"/>
<path fill-rule="evenodd" clip-rule="evenodd" d="M543.109 480.793C567.053 450.466 581.342 412.173 581.342 370.545C581.342 272.165 501.535 192.413 403.088 192.413C304.641 192.413 224.834 272.165 224.834 370.545C224.834 412.173 239.123 450.466 263.067 480.793H543.109Z" fill="#CBE6DF"/>
<path fill-rule="evenodd" clip-rule="evenodd" d="M418.312 302.954H3.21451V4.03775H418.312V302.954Z" fill="#F2F2F2"/>
<path d="M420.417 303.927V305.033H419.311H2.21582H1.10931V303.927V3.06491V1.95842H2.21582H419.311H420.417V3.06491V303.927ZM5.31992 6.11707V300.875H416.207V6.11707H5.31992Z" fill="#878B89" stroke="#878B89" stroke-width="2.213"/>
<rect width="421.093" height="17.1217" transform="matrix(-1 0 0 1 421.309 1.5084)" fill="#898989"/>
<rect width="419.011" height="17.6131" transform="matrix(-1 0 0 1 421.351 288.719)" fill="#878B89"/>
<rect width="159.359" height="15.4114" rx="7.70572" transform="matrix(-1 0 0 1 293.933 287.618)" fill="#757273"/>
<path fill-rule="evenodd" clip-rule="evenodd" d="M65.6476 452.089L60.4829 475.162C60.0242 477.211 61.5852 479.157 63.6851 479.153L96.3471 479.092C97.8634 479.089 98.5618 477.204 97.4136 476.214L84.8517 465.38C84.0488 464.687 83.6308 463.649 83.73 462.593L84.8362 450.825L65.6476 452.089Z" fill="#00926F"/>
<path fill-rule="evenodd" clip-rule="evenodd" d="M77.2464 470.582L84.0614 464.857L83.0879 463.695L76.2688 469.419L77.2464 470.582Z" fill="black"/>
<path fill-rule="evenodd" clip-rule="evenodd" d="M149.485 451.526C147.877 451.604 146.563 452.838 146.387 454.439L144.064 475.526C143.85 477.465 145.368 479.16 147.319 479.16H182.867C184.448 479.16 185.111 477.142 183.838 476.204L168.983 465.258C168.146 464.64 167.651 463.662 167.651 462.621V454.088C167.651 452.217 166.087 450.727 164.218 450.817L149.485 451.526Z" fill="#00926F"/>
<path fill-rule="evenodd" clip-rule="evenodd" d="M161.321 470.582L168.14 464.857L167.163 463.695L160.348 469.419L161.321 470.582Z" fill="black"/>
<path fill-rule="evenodd" clip-rule="evenodd" d="M58.3235 455.367L64.8881 455.46L84.3717 455.722L95.186 455.871C105.79 419.248 115.72 383.348 123.84 349.429C125.435 342.776 126.958 336.196 128.392 329.717C133.737 305.689 137.999 282.828 140.714 261.646C141.299 257.092 141.817 252.623 142.249 248.231C142.604 244.731 142.907 241.279 143.158 237.876L94.681 245.95C94.1963 250.544 93.6832 255.146 93.1378 259.777C85.834 322.321 73.3634 388.051 58.3235 455.367Z" fill="#FFE7C4"/>
<path fill-rule="evenodd" clip-rule="evenodd" d="M120.434 244.436L128.162 327.194L128.393 329.717L140.128 455.367H176.316C175.597 382.681 173.226 313.589 163.692 262.554C162.993 258.788 162.246 255.134 161.47 251.574L142.249 248.231L120.434 244.436Z" fill="#FFE7C4"/>
<path fill-rule="evenodd" clip-rule="evenodd" d="M123.457 354.035L137.26 283.054L136.267 282.86L122.467 353.841L123.457 354.035Z" fill="#522F1B"/>
<path fill-rule="evenodd" clip-rule="evenodd" d="M121.97 260.907L120.439 244.456C116.137 244.59 111.834 244.67 107.532 244.67C107.201 244.67 106.869 244.67 106.538 244.67C106.457 244.666 106.377 244.666 106.292 244.666C104.926 244.666 103.464 244.703 101.945 244.739L94.6816 245.95C94.1969 250.544 93.6838 255.146 93.1384 259.777L121.97 260.907Z" fill="black"/>
<path fill-rule="evenodd" clip-rule="evenodd" d="M142.249 248.231C142.402 246.721 142.548 245.219 142.681 243.726L137.858 243.681C132.085 243.992 126.308 244.271 120.531 244.452L142.249 248.231Z" fill="#2C2DA5"/>
<path fill-rule="evenodd" clip-rule="evenodd" d="M163.692 262.554C162.993 258.788 162.246 255.134 161.47 251.574L142.249 248.231L120.532 244.452C120.499 244.452 120.467 244.457 120.439 244.457L121.97 260.907L140.714 261.646L163.692 262.554Z" fill="black"/>
<path fill-rule="evenodd" clip-rule="evenodd" d="M147.077 168.751L128.502 166.431L89.7329 174.551L89.5107 244.396C89.5066 246.309 90.2903 248.142 91.684 249.458C92.9646 250.669 94.6613 251.344 96.4226 251.352L161.47 251.574L174.006 213.76L161.931 178.031L147.077 168.751Z" fill="#00926F"/>
<path fill-rule="evenodd" clip-rule="evenodd" d="M123.909 184.056C127.92 184.056 131.806 182.632 134.836 179.785L134.315 179.233C128.546 184.659 119.481 184.65 112.763 179.215L112.286 179.803C115.793 182.638 119.909 184.056 123.909 184.056Z" fill="#666666"/>
<path fill-rule="evenodd" clip-rule="evenodd" d="M82.3963 179.85C83.8143 173.478 89.0457 168.658 95.5174 167.77L120.269 164.37L105.285 189.938L100.66 205.94L77.3346 202.651L82.3963 179.85Z" fill="#00926F"/>
<path fill-rule="evenodd" clip-rule="evenodd" d="M72.3415 230.004C72.9272 238.655 78.1587 242.337 84.804 243.851C89.9789 245.026 96.0062 244.892 101.371 244.755C103.189 244.711 104.93 244.662 106.538 244.67C116.98 244.699 127.423 244.246 137.858 243.681L164.366 243.932L167.396 239.22C163.942 234.344 154.602 227.957 138.282 231.821L95.9456 222.233L100.66 205.936L77.3305 202.654L72.5556 224.183C72.2728 226.343 72.2122 228.268 72.3415 230.004Z" fill="#F7A979"/>
<path fill-rule="evenodd" clip-rule="evenodd" d="M186.08 212.395L169.417 233.335L166.387 234.094L163.89 209.719L180.942 201.677L186.08 212.395Z" fill="#F7A979"/>
<path fill-rule="evenodd" clip-rule="evenodd" d="M130.534 164.202L154.874 168.051C161.608 169.117 167.393 173.423 170.338 179.569L180.942 201.677L163.89 209.719L162.097 192.208L130.534 164.202Z" fill="#00926F"/>
<path fill-rule="evenodd" clip-rule="evenodd" d="M84.8042 243.851C86.1292 242.228 86.9372 240.149 86.9372 237.876C86.9372 232.681 82.7157 228.458 77.5125 228.458C75.6058 228.458 73.8283 229.035 72.3417 230.004C72.9274 238.655 78.1589 242.337 84.8042 243.851Z" fill="#FFA988"/>
<path fill-rule="evenodd" clip-rule="evenodd" d="M167.02 239.261L167.776 239.176L162.472 192.166L161.72 192.251L167.02 239.261Z" fill="#666666"/>
<path fill-rule="evenodd" clip-rule="evenodd" d="M96.3096 222.338L105.649 190.043L104.922 189.833L95.5824 222.128L96.3096 222.338Z" fill="#666666"/>
<path fill-rule="evenodd" clip-rule="evenodd" d="M114.775 108.954C114.909 107.248 114.824 105.495 114.303 103.822C113.785 102.159 112.703 100.603 111.152 99.6876C110.384 99.2359 109.532 98.9274 108.655 98.7785C107.778 98.6263 106.886 98.6263 106.009 98.7268C104.256 98.9315 102.575 99.5673 101.097 100.521C99.6222 101.471 98.3578 102.794 97.5741 104.4C96.7783 105.995 96.6086 107.906 97.1055 109.612C97.5943 111.328 98.6203 112.805 99.808 114.054C101.02 115.29 102.402 116.333 103.86 117.229L104.021 116.981C102.64 116.005 101.315 114.941 100.196 113.694C99.0769 112.458 98.1477 111.025 97.7437 109.44C97.3317 107.865 97.4812 106.166 98.2245 104.716C98.9436 103.254 100.135 102.048 101.509 101.149C102.882 100.245 104.466 99.6339 106.094 99.4312C107.722 99.2193 109.414 99.4502 110.832 100.24C112.254 101.034 113.281 102.425 113.814 103.986C114.097 104.766 114.27 105.586 114.375 106.418C114.472 107.25 114.492 108.094 114.48 108.939L114.775 108.954Z" fill="#522F1B"/>
<path fill-rule="evenodd" clip-rule="evenodd" d="M98.4142 109.343C98.4142 113.812 102.038 117.435 106.51 117.435C110.982 117.435 114.609 113.812 114.609 109.343C114.609 104.874 110.982 101.251 106.51 101.251C102.038 101.251 98.4142 104.874 98.4142 109.343Z" fill="#522F1B"/>
<path fill-rule="evenodd" clip-rule="evenodd" d="M100.378 154.11L104.72 147.469L103.044 154.817L118.031 158.772L146.188 159.913L143.918 137.578C151.108 134.046 156.207 111.278 128.91 107.443C123.949 106.747 118.859 107.19 114.254 109.139C100.216 115.073 95.4693 130.806 94.1766 152.475L100.378 154.11Z" fill="#522F1B"/>
<path fill-rule="evenodd" clip-rule="evenodd" d="M123.776 177.743C129.851 177.743 134.776 172.822 134.776 166.751V142.924H112.779V166.751C112.779 172.822 117.704 177.743 123.776 177.743Z" fill="#F7A979"/>
<path fill-rule="evenodd" clip-rule="evenodd" d="M119.881 152.933C122.237 159.869 127.755 163.116 134.78 164.875V154.53L119.881 152.933Z" fill="#F58E54"/>
<path fill-rule="evenodd" clip-rule="evenodd" d="M113.244 119.796L113.955 150.662C113.955 150.662 126.939 160.105 136.028 157.39C139.078 156.481 141.15 153.02 142.552 148.711C143.219 146.662 143.736 144.411 144.14 142.151C145.562 134.026 145.493 125.73 145.493 125.73L113.244 119.796Z" fill="#F7A979"/>
<path fill-rule="evenodd" clip-rule="evenodd" d="M139.809 138.779C139.809 139.697 140.359 140.441 141.042 140.441C141.72 140.441 142.27 139.697 142.27 138.779C142.27 137.861 141.72 137.117 141.042 137.117C140.359 137.117 139.809 137.861 139.809 138.779Z" fill="black"/>
<path fill-rule="evenodd" clip-rule="evenodd" d="M130.304 138.048C130.304 139.11 130.926 139.972 131.693 139.972C132.461 139.972 133.083 139.11 133.083 138.048C133.083 136.985 132.461 136.124 131.693 136.124C130.926 136.124 130.304 136.985 130.304 138.048Z" fill="black"/>
<path fill-rule="evenodd" clip-rule="evenodd" d="M127.092 133.628C127.067 134.102 128.611 134.453 130.386 134.422C132.166 134.391 133.628 134.71 133.53 133.516C133.45 132.54 132.068 132.406 130.289 132.437C128.513 132.468 127.112 133.214 127.092 133.628Z" fill="#522F1B"/>
<path fill-rule="evenodd" clip-rule="evenodd" d="M144.436 134.64C144.468 135.108 143.146 135.353 141.612 135.206C140.078 135.059 138.824 135.277 138.88 134.107C138.926 133.151 140.113 133.11 141.647 133.257C143.181 133.404 144.407 134.231 144.436 134.64Z" fill="#522F1B"/>
<path fill-rule="evenodd" clip-rule="evenodd" d="M124.729 145.657C126.717 145.657 128.329 144.048 128.329 142.062C128.329 140.076 126.717 138.466 124.729 138.466C122.742 138.466 121.13 140.076 121.13 142.062C121.13 144.048 122.742 145.657 124.729 145.657Z" fill="#FFA988"/>
<path fill-rule="evenodd" clip-rule="evenodd" d="M142.552 148.711C143.219 146.662 143.736 144.411 144.14 142.151C142.342 142.352 140.949 143.876 140.949 145.723C140.949 146.975 141.583 148.064 142.552 148.711Z" fill="#FFA988"/>
<path fill-rule="evenodd" clip-rule="evenodd" d="M136.966 140.246C136.925 140.565 137.002 140.896 137.127 141.185C137.252 141.477 137.418 141.729 137.584 141.959C137.915 142.421 138.238 142.824 138.323 143.187C138.367 143.361 138.351 143.545 138.307 143.728C138.266 143.907 138.165 144.069 138.02 144.225C137.729 144.536 137.269 144.774 136.768 144.957L136.804 145.349C137.398 145.419 138.044 145.307 138.602 144.895C138.876 144.692 139.115 144.389 139.24 144.038C139.349 143.695 139.397 143.308 139.297 142.943C139.086 142.22 138.614 141.787 138.246 141.407C137.858 141.019 137.527 140.689 137.362 140.22L136.966 140.246Z" fill="#F58E54"/>
<path fill-rule="evenodd" clip-rule="evenodd" d="M137.922 148.433C136.593 152.659 130.913 150.514 130.473 146.54L137.922 148.433Z" fill="white"/>
<path fill-rule="evenodd" clip-rule="evenodd" d="M146.567 130.645C137.062 130.628 129.087 129.754 121.573 126.103C120.761 132.301 118.099 135.293 114.504 136.953L106.929 130.645L110.84 117.904L131.418 116.768L147.327 124.716L146.567 130.645Z" fill="#522F1B"/>
<path fill-rule="evenodd" clip-rule="evenodd" d="M108.562 141.464C110.606 144.373 113.911 145.576 115.935 144.152C117.959 142.728 117.942 139.217 115.894 136.308C113.846 133.401 110.546 132.197 108.522 133.621C106.494 135.044 106.514 138.556 108.562 141.464Z" fill="#F7A979"/>
<path fill-rule="evenodd" clip-rule="evenodd" d="M113.995 140.982C114.141 140.459 114.185 139.904 114.121 139.342C114.06 138.781 113.87 138.205 113.523 137.71C113.175 137.215 112.682 136.831 112.149 136.607C111.616 136.378 111.054 136.29 110.505 136.324L110.436 136.713C110.909 136.934 111.349 137.139 111.737 137.391C112.121 137.644 112.448 137.938 112.703 138.29C112.961 138.641 113.135 139.059 113.276 139.511C113.414 139.965 113.498 140.453 113.599 140.963L113.995 140.982Z" fill="#F58E54"/>
<path fill-rule="evenodd" clip-rule="evenodd" d="M103.941 117.105C104.991 116.493 105.888 115.788 106.776 115.094L109.338 112.983C110.178 112.285 111.01 111.598 111.875 110.935C112.739 110.26 113.632 109.636 114.63 108.946C113.418 108.814 112.202 109.103 111.087 109.556C109.972 110.021 108.954 110.673 108.045 111.433C107.132 112.193 106.328 113.058 105.633 114C104.946 114.951 104.34 115.959 103.941 117.105Z" fill="#21A038"/>
<path fill-rule="evenodd" clip-rule="evenodd" d="M166.071 251.766H134.263C132.895 251.766 131.787 250.658 131.787 249.29V246.249C131.787 244.881 132.895 243.772 134.263 243.772H166.071V251.766Z" fill="#757273"/>
<path fill-rule="evenodd" clip-rule="evenodd" d="M157.972 251.766H216.986C217.95 251.766 218.827 251.206 219.233 250.331L243.532 197.881C244.292 196.24 243.094 194.364 241.285 194.364H187.729C185.8 194.364 184.046 195.484 183.235 197.235L157.972 251.766Z" fill="#C9C9C9"/>
<path fill-rule="evenodd" clip-rule="evenodd" d="M180.287 247.865C181.72 248.089 182.574 249.103 182.643 250.306V244.87C182.643 243.772 183.551 242.772 184.812 242.65C186.26 242.506 187.481 243.449 187.546 244.652V242.46C187.546 241.352 188.474 240.342 189.751 240.233C191.224 240.103 192.465 241.096 192.465 242.341V244.652C192.53 243.449 193.751 242.506 195.199 242.65C196.461 242.772 197.368 243.772 197.368 244.87V249.183C197.437 248.079 198.409 246.711 199.74 246.606C202.474 246.385 201.872 250.527 201.872 250.527C201.079 254.714 199.642 255.177 196.729 255.356C192.184 255.637 187.579 255.626 182.924 255.353C179.995 255.184 179.535 254.911 178.253 251.154C177.822 249.538 178.192 247.539 180.287 247.865Z" fill="#F7A979"/>
<path fill-rule="evenodd" clip-rule="evenodd" d="M197.42 246.277C197.209 247.146 197.133 248.019 197.095 248.891C197.078 249.329 197.074 249.767 197.095 250.205C197.116 250.643 197.154 251.08 197.247 251.518L197.556 251.525C197.674 251.091 197.742 250.656 197.792 250.218C197.843 249.784 197.868 249.346 197.881 248.912C197.902 248.036 197.885 247.16 197.733 246.284L197.42 246.277Z" fill="#D28572"/>
<path fill-rule="evenodd" clip-rule="evenodd" d="M192.175 244.662C191.965 245.6 191.885 246.54 191.843 247.478C191.826 247.95 191.822 248.422 191.843 248.891C191.859 249.363 191.901 249.835 191.986 250.307L192.297 250.314C192.415 249.845 192.486 249.377 192.532 248.908C192.587 248.439 192.612 247.967 192.629 247.499C192.65 246.558 192.633 245.614 192.482 244.669L192.175 244.662Z" fill="#D28572"/>
<path fill-rule="evenodd" clip-rule="evenodd" d="M187.375 244.662C187.154 245.531 187.064 246.4 187.007 247.273C186.983 247.711 186.975 248.148 186.987 248.586C186.999 249.024 187.028 249.462 187.105 249.9L187.408 249.91C187.53 249.479 187.604 249.045 187.657 248.61C187.714 248.172 187.751 247.738 187.771 247.3C187.804 246.428 187.804 245.552 187.673 244.676L187.375 244.662Z" fill="#D28572"/>
<path fill-rule="evenodd" clip-rule="evenodd" d="M181.325 248.103C181.534 248.356 181.677 248.665 181.817 248.981C181.952 249.301 182.084 249.628 182.212 249.958C182.341 250.285 182.469 250.618 182.612 250.949C182.751 251.279 182.902 251.606 183.089 251.929L183.345 251.862C183.334 251.49 183.272 251.128 183.188 250.773C183.1 250.418 182.99 250.067 182.85 249.722C182.707 249.382 182.55 249.041 182.337 248.721C182.124 248.408 181.871 248.082 181.479 247.892L181.325 248.103Z" fill="#D28572"/>
</svg>
