<svg width="110" height="106" viewBox="0 0 110 106" fill="none" xmlns="http://www.w3.org/2000/svg">
<path d="M58 30H0V87H15.6757C16.7207 82.8356 20.8486 74.5069 29 74.5069C37.1514 74.5069 40.7568 82.8356 41.5405 87H57.2162V70.6027C53.5586 70.0822 46.0865 66.8548 45.4595 58.1096C44.8324 49.3644 53.5586 46.137 58 45.6164V30Z" fill="#6D097A"/>
<path d="M84.0628 38.1752L83.815 36.9528H82.5678H72.5254V25.119C73.4242 24.9162 74.4264 24.5559 75.3367 23.9705C76.8424 23.0023 78.1441 21.3682 78.1441 18.913C78.1441 16.4292 76.8075 14.8687 75.2228 14.0336C74.3441 13.5706 73.3901 13.3239 72.5254 13.213V1.52542L108.475 1.52542V36.9528H99.7542H98.507L98.2592 38.1752C97.909 39.9029 96.0123 43.4746 91.161 43.4746C86.3097 43.4746 84.413 39.9029 84.0628 38.1752Z" stroke="#00926F" stroke-width="3.05085"/>
<path d="M86.4806 83.0443L86.3729 83.5845H85.822H79.6715V91.1015C80.1926 91.166 80.8293 91.3035 81.4038 91.6315C81.8374 91.879 82.2423 92.2377 82.5348 92.7519C82.8265 93.2647 82.9851 93.8943 82.9851 94.6522C82.9851 95.3483 82.8199 95.9334 82.5181 96.409C82.2176 96.8827 81.8066 97.2084 81.375 97.4275C80.8144 97.7122 80.199 97.828 79.6715 97.8631V105.329H101.329V83.5845H95.9576H95.4067L95.2991 83.0443C95.0767 81.9283 93.8872 79.6715 90.8898 79.6715C87.8924 79.6715 86.7029 81.9283 86.4806 83.0443Z" fill="#00926F" stroke="#00926F" stroke-width="1.343"/>
</svg>
