<svg width="118" height="90" viewBox="0 0 118 90" fill="none" xmlns="http://www.w3.org/2000/svg">
<path fill-rule="evenodd" clip-rule="evenodd" d="M103.168 76.2747H105.063V78.6146H104.663V76.623H103.565V78.6146H103.168V76.2747ZM105.757 76.2747H106.605C106.853 76.2542 107.1 76.3264 107.299 76.4776C107.373 76.5467 107.431 76.6312 107.469 76.7252C107.508 76.8192 107.525 76.9205 107.521 77.022C107.525 77.123 107.508 77.2237 107.469 77.3172C107.431 77.4107 107.373 77.4946 107.299 77.563C107.1 77.7142 106.853 77.7864 106.605 77.7659H106.157V78.6146H105.757V76.2747ZM106.571 77.4176C106.66 77.4197 106.748 77.4118 106.834 77.3939C106.896 77.3816 106.954 77.3562 107.006 77.3195C107.046 77.2883 107.076 77.2461 107.093 77.1978C107.113 77.1414 107.122 77.0818 107.12 77.022C107.122 76.9622 107.113 76.9025 107.093 76.8462C107.076 76.7984 107.045 76.7563 107.006 76.7244C106.954 76.6878 106.896 76.6624 106.834 76.6501C106.748 76.6309 106.66 76.6218 106.571 76.623H106.157V77.4311L106.571 77.4176ZM108.995 78.6518C108.858 78.6519 108.721 78.629 108.591 78.5841C108.465 78.5399 108.35 78.4683 108.255 78.3745C108.151 78.2707 108.071 78.1447 108.022 78.0059C107.96 77.8314 107.931 77.6469 107.935 77.4616V77.3939C107.931 77.2153 107.961 77.0375 108.022 76.8698C108.072 76.7345 108.152 76.6121 108.255 76.5114C108.35 76.4187 108.465 76.3482 108.591 76.3052C108.721 76.2614 108.858 76.2397 108.995 76.2409C109.133 76.2397 109.271 76.2614 109.402 76.3052C109.529 76.347 109.644 76.4176 109.739 76.5114C109.843 76.6119 109.924 76.7343 109.975 76.8698C110.035 77.0377 110.064 77.2155 110.059 77.3939V77.4616C110.064 77.6467 110.035 77.8311 109.975 78.0059C109.924 78.1449 109.844 78.2708 109.739 78.3745C109.644 78.4694 109.529 78.5411 109.402 78.5841C109.271 78.629 109.134 78.6519 108.995 78.6518ZM108.995 78.2967C109.077 78.2976 109.158 78.2826 109.234 78.2528C109.313 78.2215 109.385 78.173 109.443 78.1108C109.507 78.0352 109.556 77.948 109.588 77.8538C109.625 77.7265 109.643 77.5943 109.641 77.4616V77.3939C109.643 77.2679 109.625 77.1423 109.588 77.022C109.555 76.9312 109.506 76.8474 109.443 76.7752C109.384 76.7139 109.313 76.6665 109.234 76.6365C109.158 76.6083 109.077 76.5935 108.995 76.5926C108.912 76.5934 108.83 76.6083 108.753 76.6365C108.675 76.6665 108.605 76.7139 108.547 76.7752C108.483 76.8459 108.434 76.9302 108.406 77.022C108.367 77.1419 108.349 77.2678 108.352 77.3939V77.4616C108.349 77.5944 108.367 77.7269 108.406 77.8538C108.434 77.9488 108.482 78.0365 108.547 78.1108C108.604 78.1729 108.675 78.2215 108.753 78.2528C108.83 78.2823 108.912 78.2972 108.995 78.2967ZM110.638 76.268H112.2V76.6061H111.038V77.2215H112.095V77.5596H111.032V78.2359H112.193V78.574H110.631V76.2342L110.638 76.268ZM112.779 76.268H113.179V77.2485H113.412L114.257 76.268H114.708L113.728 77.3804L114.738 78.6078H114.253L113.408 77.563H113.176V78.6078H112.769V76.268H112.779ZM115.808 76.6061H115.027V76.268H116.99V76.6061H116.202V78.5977H115.798V76.6061H115.808ZM60.9489 80.853H62.5277V81.1911H61.3495V81.7253H61.8309C61.9672 81.723 62.1032 81.74 62.2348 81.7761C62.3399 81.8041 62.4375 81.8548 62.5209 81.9248C62.5964 81.9851 62.6545 82.0645 62.6893 82.1548C62.7276 82.2492 62.747 82.3503 62.7465 82.4523C62.747 82.5554 62.7276 82.6576 62.6893 82.7533C62.6528 82.8426 62.595 82.9216 62.5209 82.9832C62.4365 83.0508 62.3391 83.1003 62.2348 83.1286C62.1032 83.1646 61.9672 83.1817 61.8309 83.1793H60.9489V80.8428V80.853ZM61.7972 82.8445C61.8855 82.8457 61.9736 82.8367 62.0598 82.8175C62.12 82.8053 62.1772 82.7812 62.2281 82.7465C62.2701 82.7178 62.302 82.6763 62.319 82.6281C62.3374 82.5737 62.3465 82.5166 62.3459 82.4591C62.3463 82.4038 62.3372 82.3489 62.319 82.2968C62.301 82.2492 62.2694 82.208 62.2281 82.1784C62.1772 82.1437 62.12 82.1196 62.0598 82.1074C61.9734 82.0896 61.8853 82.0816 61.7972 82.0838H61.3495V82.8412L61.7972 82.8445ZM63.174 83.2266H63.1168H63.0562V82.8412H63.1067C63.1631 82.8426 63.2185 82.8261 63.2649 82.7938C63.3181 82.7434 63.3536 82.6769 63.3659 82.6045C63.3994 82.4671 63.4186 82.3266 63.4231 82.1852C63.4231 82.0026 63.4399 81.7592 63.4399 81.4548V80.853H65.0692V83.1793H64.6686V81.1911H63.827V81.5123C63.8296 81.806 63.815 82.0995 63.7833 82.3915C63.7675 82.5688 63.7267 82.743 63.6621 82.9088C63.626 83.0135 63.553 83.1013 63.4568 83.1556C63.3685 83.1978 63.2717 83.2186 63.174 83.2165V83.2266ZM67.0553 82.662H66.1093L65.9141 83.1894H65.5135L66.3955 80.853H66.7961L67.6612 83.1793H67.237L67.0418 82.6518L67.0553 82.662ZM66.2406 82.3238H66.9139L66.5772 81.3602L66.2406 82.3238ZM68.1223 80.8597H69.617V81.1979H68.5196V83.1793H68.1223V80.8428V80.8597ZM70.9601 83.2266C70.8228 83.2278 70.6863 83.2061 70.5561 83.1624C70.4306 83.1169 70.3159 83.0455 70.2195 82.9527C70.1156 82.8489 70.0362 82.723 69.9872 82.5842C69.9252 82.4096 69.8956 82.2251 69.8997 82.0398V81.9722C69.8957 81.7935 69.9254 81.6157 69.9872 81.4481C70.0371 81.3117 70.1164 81.1882 70.2195 81.0863C70.3154 80.9945 70.4304 80.9252 70.5561 80.8834C70.6861 80.8385 70.8226 80.8157 70.9601 80.8158C71.0986 80.816 71.2362 80.8388 71.3674 80.8834C71.4933 80.9248 71.6084 80.9941 71.704 81.0863C71.8071 81.1882 71.8864 81.3117 71.9363 81.4481C71.9997 81.6152 72.0294 81.7934 72.0238 81.9722V82.0398C72.0296 82.2252 71.9999 82.41 71.9363 82.5842C71.8873 82.723 71.8079 82.8489 71.704 82.9527C71.6079 83.0458 71.4931 83.1172 71.3674 83.1624C71.236 83.2059 71.0984 83.2276 70.9601 83.2266ZM70.9601 82.8885C71.0417 82.8876 71.1225 82.8727 71.1991 82.8445C71.2777 82.8141 71.3481 82.7654 71.4044 82.7025C71.4698 82.6266 71.5191 82.538 71.5492 82.4422C71.5898 82.3167 71.6091 82.1852 71.6064 82.0533V81.9857C71.609 81.8593 71.5896 81.7335 71.5492 81.6138C71.5183 81.5224 71.469 81.4384 71.4044 81.3669C71.3488 81.304 71.2781 81.2563 71.1991 81.2283C71.1229 81.1984 71.0418 81.1835 70.9601 81.1843C70.8773 81.1839 70.7951 81.1988 70.7177 81.2283C70.6391 81.2571 70.5686 81.3046 70.5124 81.3669C70.4478 81.4384 70.3985 81.5224 70.3676 81.6138C70.3313 81.7343 70.3143 81.8598 70.3171 81.9857V82.0533C70.3142 82.1848 70.3312 82.3159 70.3676 82.4422C70.3977 82.538 70.447 82.6266 70.5124 82.7025C70.5694 82.7647 70.6395 82.8132 70.7177 82.8445C70.7955 82.8728 70.8774 82.8877 70.9601 82.8885ZM73.0842 81.2148H72.3032V80.8766H74.2657V81.2148H73.4848V83.1793H73.0842V81.1911V81.2148ZM74.7269 80.8766H75.6593C75.8671 80.8589 76.0738 80.9204 76.2383 81.0491C76.2967 81.1058 76.3425 81.1743 76.3727 81.2501C76.4029 81.3258 76.4167 81.4071 76.4134 81.4887C76.4171 81.5963 76.3865 81.7023 76.3259 81.7911C76.2653 81.88 76.178 81.947 76.0767 81.9823C76.2067 82.0064 76.325 82.073 76.4134 82.1717C76.4961 82.2761 76.5391 82.4068 76.5346 82.5402C76.5351 82.6314 76.5192 82.7219 76.4874 82.8074C76.4576 82.8884 76.4078 82.9605 76.3427 83.017C76.2687 83.0791 76.1828 83.1252 76.0902 83.1522C75.9711 83.1872 75.8473 83.2032 75.7233 83.1996H74.7303V80.8631L74.7269 80.8766ZM75.6694 82.8682C75.7944 82.8811 75.9202 82.8514 76.0263 82.7837C76.0595 82.7501 76.0854 82.7099 76.1023 82.6656C76.1191 82.6213 76.1264 82.574 76.1239 82.5267C76.1251 82.4761 76.1171 82.4257 76.1003 82.3779C76.0871 82.3333 76.06 82.2942 76.0229 82.2664C75.982 82.2317 75.9336 82.2074 75.8815 82.1953C75.8108 82.1793 75.7385 82.1713 75.6661 82.1717H75.1275V82.8412L75.6694 82.8682ZM75.6088 81.8538C75.7281 81.8687 75.8485 81.8373 75.9455 81.7659C75.9762 81.7357 76.0002 81.6993 76.0159 81.6591C76.0316 81.6189 76.0386 81.5758 76.0364 81.5326C76.0396 81.4902 76.0335 81.4475 76.0183 81.4078C76.0032 81.368 75.9795 81.3321 75.9488 81.3027C75.8488 81.2389 75.73 81.2114 75.6122 81.2249H75.1308V81.8268L75.6088 81.8538ZM77.9989 83.2503C77.8616 83.2515 77.7251 83.2298 77.5949 83.1861C77.4694 83.1405 77.3547 83.0691 77.2583 82.9764C77.1544 82.8726 77.075 82.7466 77.026 82.6079C76.964 82.4333 76.9343 82.2488 76.9385 82.0635V81.9958C76.9345 81.8172 76.9642 81.6393 77.026 81.4717C77.0759 81.3354 77.1552 81.2119 77.2583 81.11C77.3542 81.0182 77.4691 80.9489 77.5949 80.9071C77.7249 80.8622 77.8614 80.8393 77.9989 80.8395C78.1374 80.8396 78.275 80.8625 78.4062 80.9071C78.5321 80.9484 78.6472 81.0178 78.7428 81.11C78.8459 81.2119 78.9252 81.3354 78.9751 81.4717C79.0385 81.6389 79.0682 81.8171 79.0626 81.9958V82.0635C79.0684 82.2489 79.0387 82.4337 78.9751 82.6079C78.9261 82.7466 78.8467 82.8726 78.7428 82.9764C78.6466 83.0695 78.5319 83.1409 78.4062 83.1861C78.2748 83.2296 78.1372 83.2513 77.9989 83.2503ZM77.9989 82.9122C78.0804 82.911 78.1612 82.8962 78.2379 82.8682C78.3165 82.8378 78.3868 82.7891 78.4432 82.7262C78.5101 82.6513 78.5596 82.5624 78.588 82.4658C78.6285 82.3404 78.6479 82.2089 78.6452 82.077V82.0094C78.6477 81.883 78.6284 81.7571 78.588 81.6374C78.5584 81.5454 78.509 81.4612 78.4432 81.3906C78.3875 81.3277 78.3169 81.28 78.2379 81.252C78.0829 81.1924 77.9115 81.1924 77.7565 81.252C77.6779 81.2807 77.6074 81.3283 77.5512 81.3906C77.4866 81.462 77.4373 81.5461 77.4064 81.6374C77.3701 81.758 77.3531 81.8835 77.3559 82.0094V82.077C77.3529 82.2084 77.37 82.3396 77.4064 82.4658C77.4365 82.5616 77.4858 82.6502 77.5512 82.7262C77.6082 82.7884 77.6783 82.8369 77.7565 82.8682C77.8342 82.8965 77.9162 82.9113 77.9989 82.9122ZM79.6416 80.8834H80.4899C80.7312 80.8679 80.9701 80.9399 81.1631 81.0863C81.3056 81.2307 81.3855 81.4257 81.3855 81.629C81.3855 81.8322 81.3056 82.0273 81.1631 82.1717C80.9701 82.3181 80.7312 82.3901 80.4899 82.3745H80.0422V83.1793H79.6416V80.8428V80.8834ZM80.4528 81.9958C80.5409 81.9963 80.6288 81.9883 80.7154 81.9722C80.7759 81.959 80.8332 81.9337 80.8837 81.8978C80.9261 81.8665 80.9578 81.8228 80.9746 81.7727C80.9933 81.716 81.0024 81.6566 81.0015 81.5969C81.0019 81.5383 80.9928 81.4801 80.9746 81.4244C80.9576 81.3753 80.9259 81.3328 80.8837 81.3027C80.8342 81.2642 80.7767 81.2376 80.7154 81.2249C80.6291 81.2071 80.541 81.1991 80.4528 81.2012H80.0388V81.9958H80.4528ZM81.9306 80.853H82.3278V82.5436L83.4724 80.853H83.8561V83.1793H83.4589V81.4887L82.3144 83.1793H81.934V80.8428L81.9306 80.853ZM85.1016 81.1911H84.324V80.853H86.2832V81.1911H85.5022V83.1793H85.105V81.1911H85.1016ZM86.7443 80.853H88.3062V81.1911H87.1415V81.8268H88.1952V82.1649H87.1314V82.8412H88.2962V83.1793H86.7477V80.8428L86.7443 80.853ZM88.7843 83.2199H88.727C88.708 83.2218 88.6888 83.2218 88.6698 83.2199V82.8412H88.7203C88.7756 82.8422 88.8298 82.8256 88.8751 82.7938C88.9309 82.7449 88.9678 82.6779 88.9795 82.6045C89.0116 82.4669 89.0296 82.3264 89.0334 82.1852C89.0334 82.0026 89.0502 81.7592 89.0502 81.4548V80.853H90.6794V83.1793H90.2822V81.1911H89.4407V81.5123C89.4441 81.8059 89.4306 82.0994 89.4003 82.3915C89.382 82.5687 89.3401 82.7427 89.2757 82.9088C89.2397 83.0125 89.1681 83.1 89.0737 83.1556C88.9845 83.1982 88.8864 83.219 88.7876 83.2165L88.7843 83.2199ZM91.3763 80.853H91.7735V81.7355H92.2346C92.371 81.7331 92.507 81.7502 92.6386 81.7862C92.7434 81.8149 92.8409 81.8656 92.9247 81.935C92.9992 81.9962 93.0571 82.0753 93.093 82.1649C93.1302 82.2596 93.1485 82.3607 93.1469 82.4625C93.1485 82.5653 93.1302 82.6675 93.093 82.7634C93.0553 82.852 92.9977 82.9307 92.9247 82.9933C92.8398 83.0603 92.7426 83.1097 92.6386 83.1387C92.507 83.1747 92.371 83.1918 92.2346 83.1894H91.3864V80.853H91.3763ZM92.1909 82.8445C92.2791 82.8457 92.3673 82.8367 92.4534 82.8175C92.5137 82.8053 92.5709 82.7812 92.6218 82.7465C92.6629 82.7168 92.6945 82.6757 92.7127 82.6281C92.7311 82.5749 92.7402 82.5188 92.7396 82.4625C92.7396 82.4061 92.7305 82.3502 92.7127 82.2968C92.6936 82.2498 92.6621 82.2089 92.6218 82.1784C92.5709 82.1437 92.5137 82.1196 92.4534 82.1074C92.3671 82.0896 92.279 82.0816 92.1909 82.0838H91.7735V82.8412L92.1909 82.8445ZM93.6653 80.853H94.0659V81.8268H95.1969V80.8631H95.6009V83.1793H95.2037V82.1649H94.0726V83.1793H93.672V80.8428L93.6653 80.853ZM97.2369 83.2199C97.0996 83.2211 96.9631 83.1994 96.8329 83.1556C96.707 83.1109 96.5922 83.0394 96.4963 82.946C96.3924 82.8421 96.313 82.7162 96.264 82.5774C96.202 82.4029 96.1723 82.2183 96.1765 82.033V81.9654C96.1725 81.7867 96.2022 81.6089 96.264 81.4413C96.3139 81.305 96.3932 81.1814 96.4963 81.0795C96.5917 80.9871 96.7068 80.9177 96.8329 80.8766C97.0947 80.7865 97.379 80.7865 97.6408 80.8766C97.7669 80.9177 97.882 80.9871 97.9774 81.0795C98.0805 81.1814 98.1598 81.305 98.2097 81.4413C98.2715 81.6089 98.3012 81.7867 98.2972 81.9654V82.033C98.3014 82.2183 98.2717 82.4029 98.2097 82.5774C98.1607 82.7162 98.0813 82.8421 97.9774 82.946C97.8815 83.0394 97.7667 83.1109 97.6408 83.1556C97.5106 83.1994 97.3741 83.2211 97.2369 83.2199ZM97.2369 82.8817C97.3184 82.8806 97.3992 82.8657 97.4759 82.8378C97.5545 82.8073 97.6248 82.7587 97.6812 82.6958C97.7466 82.6198 97.7959 82.5312 97.8259 82.4354C97.8665 82.3099 97.8859 82.1785 97.8832 82.0466V81.9789C97.8857 81.8526 97.8664 81.7267 97.8259 81.607C97.7951 81.5156 97.7458 81.4316 97.6812 81.3602C97.6255 81.2972 97.5549 81.2495 97.4759 81.2215C97.3209 81.1619 97.1495 81.1619 96.9945 81.2215C96.9159 81.2503 96.8454 81.2979 96.7892 81.3602C96.7246 81.4316 96.6753 81.5156 96.6444 81.607C96.6068 81.7273 96.5887 81.8529 96.5905 81.9789V82.0466C96.5886 82.1782 96.6067 82.3093 96.6444 82.4354C96.6745 82.5312 96.7237 82.6198 96.7892 82.6958C96.8462 82.758 96.9163 82.8065 96.9945 82.8378C97.0722 82.866 97.1542 82.8809 97.2369 82.8817ZM98.8796 80.853H100.374V81.1911H99.2802V83.1793H98.8796V80.8428V80.853ZM101.717 83.2199C101.585 83.2276 101.452 83.2139 101.323 83.1793C101.198 83.1338 101.083 83.0624 100.987 82.9697C100.883 82.8658 100.804 82.7399 100.755 82.6011C100.693 82.4265 100.663 82.242 100.667 82.0567V81.9891C100.663 81.8104 100.693 81.6326 100.755 81.465C100.804 81.3286 100.884 81.2051 100.987 81.1032C101.083 81.0114 101.198 80.9421 101.323 80.9003C101.586 80.8101 101.872 80.8101 102.135 80.9003C102.26 80.9421 102.375 81.0114 102.471 81.1032C102.574 81.2051 102.654 81.3286 102.704 81.465C102.764 81.6328 102.793 81.8106 102.788 81.9891V82.0567C102.793 82.2418 102.764 82.4263 102.704 82.6011C102.655 82.7399 102.575 82.8658 102.471 82.9697C102.375 83.0624 102.26 83.1338 102.135 83.1793C102.003 83.2233 101.866 83.245 101.727 83.2435L101.717 83.2199ZM101.717 82.8817C101.8 82.8806 101.882 82.8657 101.96 82.8378C102.038 82.8065 102.108 82.758 102.165 82.6958C102.229 82.6189 102.278 82.5306 102.31 82.4354C102.349 82.3097 102.367 82.1783 102.364 82.0466V81.9789C102.367 81.8528 102.349 81.7269 102.31 81.607C102.278 81.5162 102.228 81.4324 102.165 81.3602C102.109 81.2979 102.038 81.2503 101.96 81.2215C101.882 81.192 101.8 81.1771 101.717 81.1776C101.635 81.1771 101.552 81.192 101.475 81.2215C101.396 81.2503 101.326 81.2979 101.27 81.3602C101.205 81.4309 101.157 81.5152 101.128 81.607C101.089 81.7269 101.071 81.8528 101.074 81.9789V82.0466C101.071 82.1783 101.089 82.3097 101.128 82.4354C101.156 82.5316 101.204 82.6206 101.27 82.6958C101.327 82.758 101.397 82.8065 101.475 82.8378C101.553 82.866 101.635 82.8809 101.717 82.8817ZM105.158 83.0745C104.997 83.0781 104.838 83.0529 104.686 83.0001C104.56 82.9543 104.445 82.8817 104.35 82.7871C104.255 82.6917 104.182 82.5761 104.138 82.4489C104.089 82.3123 104.065 82.168 104.067 82.0229V81.9553C104.065 81.8179 104.089 81.6814 104.138 81.5529C104.183 81.4347 104.255 81.3292 104.35 81.2452C104.446 81.1559 104.561 81.089 104.686 81.0491C104.838 80.9991 104.998 80.9751 105.158 80.9781V80.7549H105.555V80.9781C105.714 80.9756 105.872 80.9996 106.023 81.0491C106.147 81.0905 106.262 81.1573 106.359 81.2452C106.454 81.3292 106.526 81.4347 106.571 81.5529C106.622 81.6808 106.648 81.8175 106.645 81.9553V82.0229C106.648 82.1683 106.623 82.3129 106.571 82.4489C106.527 82.5761 106.454 82.6917 106.359 82.7871C106.263 82.8803 106.148 82.9528 106.023 83.0001C105.872 83.0525 105.714 83.0776 105.555 83.0745V83.2976H105.161V83.0745H105.158ZM106.235 81.962C106.241 81.877 106.228 81.7917 106.199 81.7118C106.169 81.6319 106.123 81.5593 106.063 81.4988C105.921 81.3804 105.739 81.3222 105.555 81.3365V82.7194C105.648 82.7268 105.741 82.7147 105.829 82.6838C105.917 82.653 105.998 82.6041 106.066 82.5402C106.185 82.3979 106.246 82.2152 106.235 82.0297V81.962ZM104.478 82.0297C104.467 82.2152 104.527 82.3979 104.646 82.5402C104.714 82.6041 104.795 82.653 104.883 82.6838C104.971 82.7147 105.065 82.7268 105.158 82.7194V81.3365C104.973 81.3217 104.789 81.3799 104.646 81.4988C104.587 81.5599 104.542 81.6327 104.513 81.7125C104.484 81.7923 104.472 81.8773 104.478 81.962V82.0297ZM108.16 83.2334C108.023 83.2346 107.886 83.2129 107.756 83.1691C107.631 83.1236 107.516 83.0522 107.42 82.9595C107.316 82.8557 107.236 82.7297 107.187 82.5909C107.127 82.4161 107.098 82.2317 107.103 82.0466V81.9789C107.098 81.8005 107.127 81.6227 107.187 81.4548C107.237 81.3185 107.317 81.1949 107.42 81.093C107.516 81.0012 107.631 80.932 107.756 80.8902C108.019 80.8 108.305 80.8 108.568 80.8902C108.693 80.932 108.808 81.0012 108.904 81.093C109.007 81.1949 109.087 81.3185 109.136 81.4548C109.197 81.6227 109.226 81.8005 109.221 81.9789V82.0466C109.226 82.2317 109.197 82.4161 109.136 82.5909C109.087 82.7297 109.008 82.8557 108.904 82.9595C108.808 83.0522 108.693 83.1236 108.568 83.1691C108.436 83.2131 108.299 83.2349 108.16 83.2334ZM108.16 82.8953C108.24 82.8901 108.319 82.8718 108.393 82.8412C108.471 82.8099 108.541 82.7613 108.598 82.6992C108.663 82.6232 108.713 82.5346 108.743 82.4388C108.782 82.3131 108.8 82.1817 108.796 82.0499V81.9823C108.8 81.8562 108.782 81.7303 108.743 81.6104C108.712 81.519 108.662 81.435 108.598 81.3636C108.542 81.3013 108.471 81.2537 108.393 81.2249C108.236 81.1663 108.064 81.1663 107.908 81.2249C107.829 81.2537 107.759 81.3013 107.702 81.3636C107.638 81.4343 107.589 81.5186 107.561 81.6104C107.522 81.7303 107.504 81.8562 107.507 81.9823V82.0499C107.504 82.1817 107.522 82.3131 107.561 82.4388C107.588 82.535 107.637 82.6239 107.702 82.6992C107.759 82.7613 107.83 82.8099 107.908 82.8412C107.986 82.8694 108.067 82.8843 108.15 82.8851L108.16 82.8953ZM109.803 80.8665H110.204V81.8268H111.335V80.8631H111.732V83.1793H111.335V82.1649H110.204V83.1793H109.806V80.8428L109.803 80.8665ZM112.196 82.8581H112.445C112.49 82.7619 112.524 82.6609 112.546 82.5571C112.571 82.4422 112.591 82.3171 112.607 82.1818C112.607 82.0499 112.631 81.9113 112.634 81.7727C112.637 81.6341 112.634 81.4988 112.634 81.3669V80.8665H114.209V82.8412H114.479V83.6222H114.115V83.1793H112.553V83.6155H112.19V82.8412L112.196 82.8581ZM113.819 82.8581V81.2148H113.028V81.4346C113.031 81.7102 113.016 81.9858 112.984 82.2596C112.957 82.4627 112.912 82.663 112.849 82.8581H113.819ZM116.374 82.6755H115.431L115.233 83.203H114.836L115.714 80.8665H116.135L117.017 83.203H116.572L116.377 82.6755H116.374ZM115.559 82.3374H116.232L115.896 81.3737L115.559 82.3374ZM75.1948 87.0035V86.6958L75.9253 86.0669V86.4659L75.4742 86.8446L75.9253 87.2199V87.6358L75.1948 87.0035ZM75.9758 87.0035V86.6958L76.7062 86.0669V86.4659L76.2585 86.8446L76.7062 87.2199V87.6358L75.9758 87.0035ZM77.2852 85.4312H79.1804V87.7677H78.7697V85.7795H77.6723V87.7677H77.2751V85.4312H77.2852ZM81.1631 87.2368H80.2206L80.0253 87.7643H79.6247L80.5067 85.4278H80.9039L81.7859 87.7643H81.3617L81.1631 87.2368ZM80.3485 86.8987H81.0217L80.6851 85.935L80.3485 86.8987ZM82.2336 85.4346H82.6443L83.3848 86.8209L84.1254 85.4346H84.526V87.7711H84.1254V86.1345L83.5127 87.2875H83.2468L82.6308 86.1345V87.7711H82.2336V85.4346ZM85.6402 86.8311C85.4854 86.7929 85.3479 86.7036 85.2497 86.5775C85.1626 86.4568 85.1176 86.3106 85.1218 86.1616C85.1199 86.0606 85.1394 85.9603 85.179 85.8674C85.2155 85.7789 85.2719 85.7002 85.344 85.6375C85.4237 85.5695 85.5165 85.5189 85.6166 85.4887C85.7408 85.4502 85.8704 85.4319 86.0004 85.4346H86.8823V87.7711H86.4851V86.8784H85.9937L85.4786 87.7711H85.0545L85.6402 86.8311ZM85.519 86.1548C85.5158 86.2079 85.5252 86.2609 85.5462 86.3097C85.5673 86.3584 85.5995 86.4015 85.6402 86.4355C85.7674 86.5163 85.9179 86.552 86.0677 86.5369H86.4851V85.7761H86.0677C85.9185 85.7629 85.7689 85.7972 85.6402 85.8742C85.5995 85.9081 85.5673 85.9512 85.5462 85.9999C85.5252 86.0487 85.5158 86.1018 85.519 86.1548ZM88.1278 85.7761H87.3469V85.438H89.306V85.7761H88.5318V87.7643H88.1278V85.7761ZM89.7706 85.438H90.1678V86.3205H90.6155C90.753 86.3181 90.8901 86.3352 91.0228 86.3712C91.1265 86.401 91.2236 86.4503 91.3089 86.5166C91.3828 86.5797 91.4405 86.6597 91.4772 86.7499C91.5491 86.9417 91.5491 87.1532 91.4772 87.345C91.4413 87.4347 91.3834 87.5137 91.3089 87.5749C91.2247 87.6437 91.1273 87.6943 91.0228 87.7237C90.8901 87.7598 90.753 87.7768 90.6155 87.7744H89.7706V85.438ZM90.5852 87.4296C90.6723 87.4308 90.7593 87.4217 90.8444 87.4025C90.9057 87.3903 90.964 87.3662 91.0161 87.3315C91.0562 87.3008 91.0876 87.26 91.107 87.2131C91.1397 87.1028 91.1397 86.9853 91.107 86.875C91.0876 86.8282 91.0562 86.7874 91.0161 86.7567C90.964 86.722 90.9057 86.6978 90.8444 86.6857C90.7593 86.6665 90.6723 86.6574 90.5852 86.6586H90.1678V87.4228L90.5852 87.4296ZM92.8911 85.438H94.7862V87.7744H94.3857V85.7863H93.2883V87.7744H92.9079V85.438H92.8911ZM96.429 87.8049C96.2903 87.8064 96.1525 87.7835 96.0217 87.7373C95.8955 87.6946 95.7805 87.6241 95.685 87.531C95.5819 87.4265 95.5027 87.3007 95.4528 87.1624C95.3891 86.9883 95.3594 86.8035 95.3652 86.6181V86.5606C95.3592 86.3806 95.3889 86.2013 95.4528 86.0331C95.5039 85.8984 95.5831 85.7762 95.685 85.6747C95.7805 85.5816 95.8955 85.5111 96.0217 85.4684C96.1534 85.4265 96.2907 85.4049 96.429 85.4042C96.5661 85.4048 96.7023 85.4265 96.8329 85.4684C96.9592 85.5107 97.0743 85.5812 97.1695 85.6747C97.2714 85.7762 97.3506 85.8984 97.4018 86.0331C97.4637 86.2018 97.4933 86.3808 97.4893 86.5606V86.6282C97.4935 86.8135 97.4638 86.998 97.4018 87.1726C97.3519 87.3109 97.2727 87.4367 97.1695 87.5411C97.0743 87.6346 96.9592 87.7051 96.8329 87.7474C96.7033 87.7939 96.5665 87.8168 96.429 87.815V87.8049ZM96.429 87.4498C96.5103 87.4498 96.5911 87.4361 96.668 87.4093C96.7461 87.378 96.8163 87.3294 96.8733 87.2673C96.9387 87.1913 96.988 87.1027 97.0181 87.0069C97.0571 86.8811 97.0753 86.7498 97.0719 86.6181V86.5606C97.0757 86.4344 97.0575 86.3085 97.0181 86.1886C96.9879 86.0969 96.9385 86.0127 96.8733 85.9418C96.8171 85.8795 96.7466 85.8319 96.668 85.8032C96.513 85.7436 96.3416 85.7436 96.1866 85.8032C96.107 85.8319 96.0354 85.8795 95.9779 85.9418C95.9149 86.0138 95.8668 86.0977 95.8365 86.1886C95.7987 86.3089 95.7805 86.4345 95.7826 86.5606V86.6282C95.7809 86.7598 95.799 86.8909 95.8365 87.017C95.8669 87.112 95.9148 87.2003 95.9779 87.2774C96.0362 87.3396 96.1074 87.3881 96.1866 87.4194C96.2645 87.4465 96.3465 87.4602 96.429 87.46V87.4498ZM98.0717 85.4211H98.4689V86.3983H98.7012L99.5461 85.4211H100.001L99.0176 86.5606L100.027 87.7846H99.5427L98.6978 86.7398H98.4655V87.7846H98.0683V85.4481L98.0717 85.4211ZM101.391 87.788C101.253 87.7897 101.116 87.7668 100.987 87.7203C100.861 87.6773 100.746 87.6068 100.65 87.5141C100.547 87.4096 100.468 87.2838 100.418 87.1455C100.356 86.971 100.326 86.7864 100.33 86.6011V86.5606C100.326 86.3808 100.356 86.2018 100.418 86.0331C100.469 85.8984 100.548 85.7762 100.65 85.6747C100.746 85.5819 100.861 85.5115 100.987 85.4684C101.251 85.3828 101.534 85.3828 101.798 85.4684C101.924 85.5115 102.039 85.5819 102.135 85.6747C102.237 85.7762 102.316 85.8984 102.367 86.0331C102.428 86.2021 102.456 86.381 102.451 86.5606V86.6282C102.456 86.8133 102.428 86.9978 102.367 87.1726C102.317 87.3109 102.238 87.4367 102.135 87.5411C102.039 87.6339 101.924 87.7043 101.798 87.7474C101.667 87.7942 101.529 87.8171 101.391 87.815V87.788ZM101.391 87.4329C101.473 87.4329 101.555 87.4192 101.633 87.3924C101.711 87.3611 101.781 87.3125 101.838 87.2503C101.904 87.1744 101.953 87.0858 101.983 86.99C102.022 86.8642 102.041 86.7328 102.037 86.6011V86.5606C102.041 86.4344 102.023 86.3085 101.983 86.1886C101.953 86.0969 101.904 86.0127 101.838 85.9418C101.782 85.8795 101.712 85.8319 101.633 85.8032C101.556 85.7737 101.474 85.7588 101.391 85.7592C101.308 85.7588 101.226 85.7737 101.148 85.8032C101.07 85.8319 100.999 85.8795 100.943 85.9418C100.878 86.0121 100.829 86.0965 100.802 86.1886C100.762 86.3085 100.744 86.4344 100.748 86.5606V86.6282C100.744 86.7599 100.763 86.8913 100.802 87.017C100.829 87.1133 100.877 87.2022 100.943 87.2774C101 87.3396 101.07 87.3881 101.148 87.4194C101.226 87.4465 101.308 87.4602 101.391 87.46V87.4329ZM102.936 87.788H102.879H102.818V87.4093H102.869C102.925 87.4101 102.98 87.3935 103.027 87.3619C103.08 87.3115 103.115 87.245 103.128 87.1726C103.161 87.0351 103.18 86.8947 103.185 86.7533C103.185 86.5707 103.202 86.3273 103.202 86.0229V85.4211H104.831V87.7575H104.43V85.7693H103.586V86.0872C103.589 86.3819 103.576 86.6766 103.545 86.9697C103.53 87.1475 103.488 87.322 103.421 87.487C103.384 87.5902 103.312 87.6774 103.219 87.7339C103.13 87.776 103.034 87.7969 102.936 87.7947V87.788ZM105.525 85.4211H107.086V85.7592H105.925V86.3712H106.989V86.7093H105.925V87.3856H107.086V87.7237H105.525V85.3873V85.4211ZM107.665 85.4211H108.056V86.3814H109.187V85.4211H109.584V87.7575H109.187V86.7432H108.056V87.7575H107.655V85.4211H107.665ZM110.291 85.4211H110.688V87.1117L111.833 85.4211H112.217V87.7575H111.819V86.0669L110.675 87.7575H110.291V85.4211ZM112.913 85.4211H113.311V87.1117L114.455 85.4211H114.842V87.7575H114.452V86.0669L113.307 87.7575H112.923V85.4211H112.913ZM113.876 85.2723C113.713 85.2854 113.55 85.2358 113.422 85.1337C113.372 85.0813 113.333 85.0191 113.308 84.951C113.283 84.883 113.273 84.8105 113.277 84.7381H113.644C113.638 84.8146 113.658 84.8909 113.701 84.9545C113.724 84.9766 113.752 84.9937 113.782 85.0047C113.812 85.0157 113.844 85.0205 113.876 85.0187C113.908 85.0207 113.94 85.016 113.97 85.005C114 84.9939 114.028 84.9767 114.051 84.9545C114.096 84.8918 114.116 84.8148 114.108 84.7381H114.475C114.48 84.8105 114.47 84.8833 114.445 84.9515C114.42 85.0196 114.381 85.0817 114.331 85.1337C114.202 85.2358 114.04 85.2854 113.876 85.2723ZM116.152 86.6857V86.9934L115.421 87.6257V87.2368L115.869 86.8615L115.421 86.4828V86.0703L116.152 86.6992V86.6857ZM116.933 86.6857V86.9934L116.202 87.6257V87.2368L116.65 86.8615L116.202 86.4828V86.0703L116.933 86.6857Z" fill="#666666"/>
<path fill-rule="evenodd" clip-rule="evenodd" d="M29.9291 7.63491C32.9587 1.94085 41.4483 -2.36351 50.4631 1.44042C57.6332 -0.655971 65.16 -0.426045 70.2397 3.37112L58.0203 3.18515L57.9126 10.3061H58.7305C59.6073 10.323 60.4416 10.6884 61.0506 11.3223C61.6595 11.9561 61.9934 12.8067 61.979 13.6874C61.9621 14.5684 61.5984 15.4068 60.9675 16.019C60.3366 16.6312 59.4898 16.9673 58.6127 16.9537H57.8116L57.7005 24.0544L64.7696 24.1626V23.3477C64.7846 22.4655 65.1475 21.6254 65.7787 21.0117C66.4098 20.3981 67.2575 20.061 68.1358 20.0746C69.0123 20.0924 69.8461 20.4581 70.4548 21.0917C71.0636 21.7254 71.3977 22.5754 71.3842 23.4559V24.264L77.6454 24.3621H78.4499L78.6923 8.49375C89.5888 9.99166 95.4359 24.548 85.3103 34.1069C85.0376 37.7079 83.3949 40.6057 80.7962 42.834L78.1234 28.6766L72.7374 29.6909C72.5691 28.7991 72.055 28.011 71.3082 27.4999C70.5614 26.9888 69.643 26.7966 68.7552 26.9656C67.8673 27.1347 67.0827 27.6511 66.5738 28.4012C66.065 29.1514 65.8737 30.0739 66.042 30.9657L60.2554 32.0984L61.1913 36.981C63.1639 37.0486 64.9682 38.205 65.3452 40.2135C65.7222 42.2219 65.0759 44.3995 62.7835 45.3327L63.3726 48.5449C61.6558 48.6396 59.8953 48.6497 58.1112 48.5754L57.9025 47.3649C58.8626 47.0036 59.6667 46.3164 60.1754 45.4222C60.6842 44.5281 60.8655 43.4834 60.6881 42.4691C60.5107 41.4548 59.9856 40.5347 59.2039 39.8684C58.4222 39.202 57.4331 38.8313 56.4079 38.8204L55.361 32.7983L49.2445 33.8736C48.8884 32.9234 48.2175 32.1254 47.3445 31.6137C46.4715 31.102 45.4498 30.9078 44.451 31.0637H44.3736C43.8056 31.1634 43.2628 31.3748 42.7763 31.6858C42.2899 31.9968 41.8695 32.4013 41.5392 32.8761C41.0273 33.6022 40.7489 34.4683 40.7414 35.358L35.6921 36.2472L34.8976 36.3892L37.3281 50.381C35.6248 50.2795 32.1643 49.2279 29.8651 46.9997C27.5559 48.7613 23.402 52.4909 18.972 58.7936C17.8443 58.4757 15.3129 58.3236 14.1751 58.682C15.6664 53.3227 17.6794 49.1705 18.9114 46.3234C12.455 45.8568 11.3341 38.2253 13.6197 35.1923C3.56816 23.3781 15.1244 5.20039 29.9291 7.63491ZM72.081 5.02118L59.626 4.82845L59.5687 8.76087C60.7142 8.97034 61.7486 9.58094 62.4882 10.4842C63.2278 11.3874 63.6247 12.5248 63.6082 13.6941C63.5916 14.8668 63.1607 15.9954 62.3925 16.8786C61.6242 17.7617 60.5686 18.342 59.4139 18.5158L59.3533 22.4483L63.2716 22.5091C63.4814 21.3591 64.0896 20.3209 64.9885 19.5782C65.8875 18.8355 67.0191 18.4364 68.1829 18.4516C69.3483 18.4687 70.4699 18.9004 71.3482 19.67C72.2265 20.4396 72.8046 21.4971 72.9798 22.6545L76.8981 22.7154L77.1169 8.36864C76.2376 8.35206 75.3587 8.41657 74.4912 8.56138C73.8705 7.26167 73.0579 6.06359 72.081 5.00766V5.02118ZM52.4727 27.6284L51.069 22.2183L51.7423 21.9614C52.3821 21.7166 52.9093 21.243 53.2228 20.6316C53.5363 20.0202 53.6138 19.3141 53.4406 18.6487C53.2674 17.9834 52.8556 17.4058 52.2843 17.0268C51.713 16.6478 51.0225 16.4941 50.3453 16.5953L49.6283 16.7035L48.036 10.5699L31.0534 15.023L35.4901 32.0849L39.193 31.1111C39.2817 30.2016 39.6327 29.3379 40.2028 28.6258C40.9566 27.6755 41.9878 26.9861 43.1516 26.6546C44.3633 26.37 45.6321 26.4571 46.7939 26.9048C47.6533 27.2302 48.3965 27.8059 48.9281 28.5582L52.4727 27.6284ZM52.981 23.1651C53.806 22.6768 54.4498 21.9314 54.8144 21.042C55.1791 20.1527 55.2446 19.168 55.0012 18.2378C54.7578 17.3076 54.2187 16.4826 53.4658 15.8883C52.7129 15.294 51.7874 14.9629 50.83 14.9452L49.1772 8.59181L29.0842 13.8632L34.3355 34.0596L40.8188 32.3689L40.7852 31.6927C40.7479 30.9431 40.9877 30.2061 41.4584 29.6233C41.9898 28.9475 42.7184 28.4556 43.5421 28.2167C44.4245 28.0133 45.3474 28.0804 46.1913 28.4094C46.8916 28.6649 47.4675 29.1805 47.8004 29.8499L48.0865 30.4484L54.4285 28.7848L52.9676 23.1651H52.981ZM56.455 48.4807L56.0409 46.1138L56.8387 45.9752C57.5641 45.8462 58.2092 45.4341 58.6329 44.8289C58.9474 44.3775 59.1217 43.8426 59.1336 43.2918C59.1455 42.741 58.9945 42.1989 58.6998 41.7343C58.4051 41.2696 57.9799 40.9031 57.4778 40.6812C56.9758 40.4592 56.4195 40.3918 55.8794 40.4874L55.0816 40.626L54.0481 34.6918L47.8543 35.784V34.888C47.7122 34.1742 47.2977 33.5446 46.6995 33.1338C46.1012 32.7231 45.3666 32.5638 44.653 32.6901C43.9306 32.8203 43.2891 33.2331 42.8694 33.8379C42.4497 34.4427 42.2861 35.19 42.4144 35.9159V35.9869V36.7375L41.7412 36.8559L36.7625 37.7316L39.0044 50.5804C41.4416 51.0166 47.8341 50.4722 50.6146 47.7875C52.5602 48.1155 54.5329 48.3522 56.455 48.4807Z" fill="#6D097A"/>
<path fill-rule="evenodd" clip-rule="evenodd" d="M87.9293 52.2576L105.158 54.9829L107.871 37.6775L102.69 36.8559C102.8 36.0086 102.577 35.1516 102.067 34.4676C101.557 33.7836 100.801 33.3267 99.9609 33.1944C99.1205 33.0621 98.2618 33.2648 97.5681 33.7593C96.8743 34.2538 96.4004 35.001 96.2472 35.8415L90.6424 34.9556L89.8043 40.3893C90.5744 40.6781 91.2229 41.2232 91.6418 41.9337C92.0608 42.6442 92.2248 43.4774 92.1068 44.2947C91.8408 45.7418 90.7906 46.7224 88.8011 46.8949L87.9293 52.2576Z" fill="#00926F"/>
<path fill-rule="evenodd" clip-rule="evenodd" d="M15.8953 70.1141C15.2181 70.1212 14.5438 70.0243 13.8958 69.8267C13.3257 69.656 12.7973 69.3682 12.3439 68.9813C11.9028 68.5965 11.5571 68.1138 11.3341 67.5713C11.0814 66.9446 10.9588 66.2727 10.9739 65.5967V65.2586C10.9583 64.5836 11.0726 63.9119 11.3105 63.2805C11.5172 62.7386 11.8482 62.2532 12.2766 61.8638C12.7122 61.479 13.2238 61.1909 13.7779 61.0184C14.4072 60.8195 15.064 60.7225 15.7236 60.731C17.3461 60.731 18.5479 61.1199 19.3188 61.8976C20.0896 62.6753 20.4801 63.8215 20.4801 65.3431V66.3575H14.6936C14.7144 66.6678 14.8322 66.9636 15.0302 67.2028C15.2135 67.3736 15.4534 67.47 15.7034 67.4733H20.2916C20.1125 68.2387 19.6551 68.9093 19.0091 69.3533C18.2483 69.8706 17.2081 70.1276 15.8953 70.1276V70.1141ZM15.8212 63.3752C15.673 63.3606 15.5235 63.3791 15.3832 63.4293C15.243 63.4796 15.1155 63.5604 15.01 63.666C14.8424 63.8749 14.7405 64.1291 14.7171 64.3963H16.8547C16.831 64.1309 16.733 63.8777 16.5719 63.666C16.4776 63.5627 16.3607 63.4827 16.2305 63.4322C16.1003 63.3818 15.9602 63.3623 15.8212 63.3752ZM21.3284 60.9779H26.0411L27.226 64.3287L28.4109 60.9779H32.989V69.8605H29.6665V65.0827L28.3201 68.3524H25.994L24.6475 65.0827V69.8605H21.3217V60.9779H21.3284ZM38.7655 70.1073C38.0883 70.1145 37.4139 70.0175 36.7659 69.8199C36.1952 69.6485 35.6658 69.3608 35.2107 68.9746C34.7704 68.589 34.4248 68.1065 34.2009 67.5646C33.9468 66.9347 33.8242 66.2592 33.8407 65.5798V65.2417C33.8251 64.5667 33.9394 63.895 34.1773 63.2636C34.384 62.7217 34.715 62.2363 35.1434 61.8469C35.579 61.4621 36.0906 61.174 36.6447 61.0015C37.274 60.8026 37.9308 60.7056 38.5904 60.7141C40.2129 60.7141 41.4147 61.103 42.1856 61.8807C42.9564 62.6584 43.3469 63.8046 43.3469 65.3262V66.3406H37.557C37.5778 66.6509 37.6956 66.9467 37.8936 67.1859C38.0129 67.2897 38.1521 67.3679 38.3026 67.4156C38.4532 67.4633 38.6118 67.4795 38.7688 67.4631H43.155C42.976 68.2286 42.5185 68.8991 41.8725 69.3431C41.1117 69.8605 40.0716 70.1174 38.7587 70.1174L38.7655 70.1073ZM38.6847 63.3684C38.5365 63.3538 38.3869 63.3723 38.2466 63.4226C38.1064 63.4729 37.9789 63.5537 37.8734 63.6592C37.7058 63.8681 37.6039 64.1223 37.5805 64.3896H39.7215C39.6978 64.1242 39.5998 63.8709 39.4387 63.6592C39.3444 63.5559 39.2275 63.4759 39.0973 63.4255C38.9671 63.375 38.827 63.3555 38.688 63.3684H38.6847ZM44.1918 60.9711H47.861V63.8519H49.699V60.9711H53.3682V69.8537H49.699V66.8106H47.861V69.8537H44.1918V60.9779V60.9711ZM61.3798 69.8537H54.5329V60.9779H58.2021V66.912H59.7034V60.9779H63.376V66.912H64.3858V71.9569H61.3832V69.8605L61.3798 69.8537ZM65.2173 60.9711H68.8898V64.6567L71.3102 60.9711H74.3936V69.8537H70.7177V66.1681L68.3008 69.8537H65.2106V60.9779L65.2173 60.9711ZM76.8846 66.7193C76.4306 66.4864 76.0575 66.121 75.8142 65.6711C75.5837 65.2111 75.4681 64.7016 75.4776 64.1867C75.4732 63.7382 75.5496 63.2926 75.7031 62.8714C75.8509 62.4828 76.0886 62.1351 76.3965 61.857C76.7402 61.5474 77.1468 61.3166 77.5882 61.1807C78.1497 61.0145 78.7332 60.9359 79.3184 60.9474H84.324V69.83H80.6481V67.2873H80.3115L79.1063 69.8605H75.1342L76.8712 66.7429L76.8846 66.7193ZM79.1535 64.1867C79.1444 64.2797 79.1605 64.3735 79.2002 64.458C79.24 64.5426 79.3017 64.6147 79.379 64.6668C79.5371 64.7634 79.7192 64.8126 79.9041 64.8088H80.6548V63.5679H79.9041C79.7201 63.5641 79.5385 63.6109 79.379 63.7032C79.2955 63.7559 79.229 63.832 79.1878 63.9221C79.1465 64.0121 79.1323 64.1123 79.1467 64.2104L79.1535 64.1867Z" fill="#6D097A"/>
<path fill-rule="evenodd" clip-rule="evenodd" d="M87.3772 70.1073C87.1077 70.1085 86.8408 70.0544 86.5929 69.9484C86.3558 69.8466 86.14 69.7009 85.9567 69.5189C85.7764 69.336 85.6325 69.1203 85.5325 68.8833C85.4269 68.6342 85.3731 68.3661 85.3743 68.0954C85.3719 67.8281 85.4221 67.5629 85.522 67.3151C85.622 67.0674 85.7697 66.8419 85.9567 66.6516C86.1389 66.4716 86.3552 66.3302 86.5929 66.2357C87.0963 66.033 87.6581 66.033 88.1615 66.2357C88.3982 66.3302 88.6134 66.4717 88.7944 66.6516C88.9756 66.8358 89.1206 67.0526 89.2219 67.2907C89.3286 67.5453 89.3825 67.8192 89.3801 68.0954C89.3813 68.3661 89.3275 68.6342 89.2219 68.8833C89.0176 69.3618 88.638 69.7432 88.1615 69.9484C87.9135 70.0541 87.6467 70.1082 87.3772 70.1073ZM90.7973 60.9778H94.2039V61.9922C94.4326 61.6168 94.7583 61.3106 95.1465 61.1063C95.6861 60.8335 96.2867 60.7053 96.8902 60.7344C97.2875 60.708 97.6859 60.7661 98.0594 60.9047C98.433 61.0434 98.7732 61.2596 99.058 61.5391C99.5607 62.0756 99.8109 62.8646 99.8087 63.906V69.8571H96.1395V64.6567C96.1507 64.4119 96.086 64.1697 95.9543 63.9635C95.8895 63.8758 95.8037 63.806 95.7048 63.7605C95.606 63.715 95.4973 63.6953 95.3888 63.7032C95.2597 63.6915 95.1296 63.7088 95.0079 63.7538C94.8862 63.7989 94.776 63.8705 94.6853 63.9635C94.5333 64.1613 94.4568 64.4072 94.4698 64.6567V69.8537H90.7973V60.9711V60.9778ZM105.484 70.1073C104.806 70.1155 104.131 70.0197 103.481 69.8233C102.912 69.6503 102.384 69.3627 101.929 68.9779C101.488 68.5944 101.143 68.1128 100.92 67.5713C100.667 66.9397 100.545 66.2635 100.559 65.5831V65.245C100.544 64.5701 100.659 63.8986 100.896 63.267C101.106 62.7259 101.438 62.241 101.865 61.8502C102.301 61.4648 102.812 61.1766 103.367 61.0049C103.995 60.8076 104.651 60.7106 105.309 60.7175C106.936 60.7175 108.136 61.1063 108.908 61.884C109.68 62.6617 110.069 63.8102 110.076 65.3295V66.3439H104.286C104.304 66.656 104.422 66.9538 104.622 67.1926C104.738 67.2931 104.873 67.3691 105.019 67.4162C105.165 67.4632 105.318 67.4803 105.471 67.4665H109.891C109.71 68.2306 109.253 68.8997 108.608 69.3431C107.847 69.8571 106.81 70.114 105.498 70.114L105.484 70.1073ZM105.4 63.3684C105.252 63.3543 105.103 63.3731 104.964 63.4233C104.824 63.4736 104.697 63.5541 104.592 63.6592C104.425 63.8681 104.323 64.1223 104.299 64.3896H106.433C106.411 64.1238 106.313 63.8702 106.151 63.6592C106.056 63.5561 105.939 63.4763 105.809 63.4258C105.679 63.3754 105.539 63.3558 105.4 63.3684ZM115.078 69.972C114.534 69.9813 113.991 69.9199 113.462 69.7894C113.04 69.6851 112.654 69.4704 112.341 69.1673C112.034 68.84 111.814 68.4398 111.702 68.0041C111.548 67.4048 111.478 66.7869 111.493 66.1681V58.9592H115.162V60.9711H116.845V63.906H115.162V65.3836C115.162 65.6744 115.162 65.9213 115.196 66.1275C115.21 66.301 115.258 66.4699 115.337 66.6246C115.411 66.7467 115.524 66.8407 115.657 66.8917C115.836 66.9538 116.026 66.9824 116.216 66.9762C116.478 66.9757 116.74 66.9588 117 66.9255V69.7759C116.687 69.83 116.357 69.874 116.007 69.9078C115.657 69.9416 115.347 69.972 115.078 69.972Z" fill="#00926F"/>
<path d="M0 67.0844H0.858388C1.10481 66.6693 1.26831 66.2099 1.33976 65.7319C1.4276 65.2408 1.47377 64.7431 1.47777 64.2442V60.9846H9.63751V67.0844H10.4959V72.2781H7.4057V70.1208H3.0902V72.2781H0V67.0844ZM5.85724 67.0844V64.0142H4.73965V64.5992C4.74863 65.1258 4.70919 65.6522 4.62183 66.1715C4.56674 66.4839 4.47988 66.7898 4.36263 67.0844H5.85724Z" fill="#6D097A"/>
</svg>
